<svg width="1200" height="420" viewBox="0 0 1200 420" fill="none" xmlns="http://www.w3.org/2000/svg" xmlns:xlink="http://www.w3.org/1999/xlink">
  <defs>
    <linearGradient id="g1" x1="0" y1="0" x2="1200" y2="420" gradientUnits="userSpaceOnUse">
      <stop offset="0" stop-color="#EFF6FF"/>
      <stop offset="1" stop-color="#ECFEFF"/>
    </linearGradient>
    <linearGradient id="iconGrad1" x1="104.63" y1="-13.97" x2="29.26" y2="117.55" gradientUnits="userSpaceOnUse">
      <stop offset="0" stop-color="#0033FE"/>
      <stop offset="1" stop-color="#0BF1C3"/>
    </linearGradient>
    <linearGradient id="iconGrad2" x1="204.93" y1="70.85" x2="129.56" y2="202.37" gradientUnits="userSpaceOnUse">
      <stop offset="0" stop-color="#0BF1C3"/>
      <stop offset="1" stop-color="#0033FE"/>
    </linearGradient>
    <radialGradient id="glow" cx="0" cy="0" r="1" gradientUnits="userSpaceOnUse" gradientTransform="translate(900 60) rotate(45) scale(320 200)">
      <stop offset="0" stop-color="#6366F1" stop-opacity="0.35"/>
      <stop offset="1" stop-color="#6366F1" stop-opacity="0"/>
    </radialGradient>
  </defs>
  <rect width="1200" height="420" rx="24" fill="url(#g1)"/>
  <rect x="40" y="40" width="1120" height="340" rx="20" fill="#ffffff" stroke="#E5E7EB"/>
  <ellipse cx="900" cy="100" rx="280" ry="160" fill="url(#glow)"/>
  <!-- Brand Logo -->
  <g transform="translate(80,95) scale(0.55)">
    <!-- Icon -->
    <path fill="url(#iconGrad1)" d="M36.4,130.04l15.03-26.02l45.08-78.05c9.3-16.1,26.49-26,45.08-25.96l0,0H82.01C63.44,0,46.27,9.91,36.98,26 L6.97,77.99c-9.29,16.09-9.29,35.91,0,51.99c5.36,9.29,13.35,16.51,22.72,20.96C30.39,143.69,32.63,136.56,36.4,130.04z"/>
    <path fill="url(#iconGrad2)" d="M215.96,78.08 c-5.36-9.29-13.35-16.51-22.72-20.96c-0.71,7.25-2.95,14.39-6.71,20.91l-15.01,25.99l-45.1,78.08c-9.3,16.1-26.49,26-45.08,25.96 l0,0h59.58c18.58,0,35.74-9.91,45.03-26l30.02-51.99C225.24,113.98,225.24,94.16,215.96,78.08z"/>
    <path fill="url(#iconGrad1)" d="M126.45,129.99l-15-25.98l-30.02,51.99h-30 c-13.26,0-21.58-14.27-15.14-25.79c-9.18,16.04-9.15,35.75,0.1,51.76l0.06,0.11c9.26,16.04,26.36,25.93,44.88,25.97h0 c18.59,0.04,35.78-9.86,45.08-25.96L156.5,130C149.83,141.56,133.13,141.56,126.45,129.99z"/>
    <!-- Text: Nebutra -->
    <g transform="translate(240, 0)">
      <path fill="#060307" d="M155.1,176.89h-15.66c-5.54,0-10.7-2.81-13.7-7.47l-57.21-88.84v80.02c0,9-7.29,16.29-16.29,16.29h-9.88 V29.72h15.66c5.54,0,10.7,2.81,13.7,7.47l57.21,88.84V46.01c0-9,7.29-16.29,16.29-16.29h9.88V176.89z"/>
      <rect x="189.81" y="105.91" fill="#060307" width="95.58" height="26.17"/>
      <path fill="#060307" d="M253.58,144.74c-6.16,5.3-14.43,8.21-23.36,7.26c-13.99-1.49-25.34-12.58-27.12-26.54 c-2.55-20.08,14.42-37.04,34.5-34.47c13.77,1.76,24.77,12.85,26.46,26.62c0.63,5.12-0.02,10.03-1.66,14.47h27.06 c0.65-3.45,1.01-7,1.01-10.63c0-32.81-27.92-59.23-61.26-56.73c-27.81,2.09-50.27,24.54-52.36,52.36 c-2.5,33.33,23.91,61.26,56.73,61.26c21.36,0,40-11.84,49.73-29.3l-11.19-6.21C266.14,139.52,258.75,140.28,253.58,144.74z"/>
      <path fill="#060307" d="M336.13,176.89h-9.88c-9,0-16.29-7.29-16.29-16.29V29.72h9.88c9,0,16.29,7.29,16.29,16.29V176.89z"/>
      <path fill="#060307" d="M366.85,178.34c-31.37,0-56.89-25.52-56.89-56.89s25.52-56.89,56.89-56.89s56.89,25.52,56.89,56.89 S398.22,178.34,366.85,178.34z M366.85,90.73c-16.94,0-30.72,13.78-30.72,30.72c0,16.94,13.78,30.72,30.72,30.72 c16.94,0,30.72-13.78,30.72-30.72C397.57,104.51,383.79,90.73,366.85,90.73z"/>
      <path fill="#060307" d="M494.89,178.33c-27.71,0.47-50.39-22.68-50.39-50.4V64.56h9.88c9,0,16.29,7.29,16.29,16.29v47.39 c0,12.65,9.82,23.44,22.46,23.92c13.29,0.5,24.26-10.16,24.26-23.34V80.85c0-9,7.29-16.29,16.29-16.29h9.88v64.25 C543.56,155.83,521.81,177.87,494.89,178.33z"/>
      <path fill="#060307" d="M619.8,176.89c-29.84,0-54.11-24.27-54.11-54.11V46.01c0-9,7.29-16.29,16.29-16.29h9.88v93.05 c0,11.77,7.31,21.86,17.64,25.98c6.21,2.47,10.31,8.46,10.31,15.14V176.89z"/>
      <path fill="#060307" d="M603.51,93.38h-24.74V67.21h41.03v9.88C619.8,86.09,612.51,93.38,603.51,93.38z"/>
      <path fill="#060307" d="M667.05,176.91h-9.88c-9,0-16.29-7.29-16.29-16.29v-37.28c0-32.41,26.37-58.78,58.78-58.78v12.68 c0,6.93-4.41,13.05-10.94,15.38c-12.62,4.51-21.68,16.58-21.68,30.73V176.91z"/>
      <path fill="#060307" d="M765.1,178.34c-31.37,0-56.89-25.52-56.89-56.89s25.52-56.89,56.89-56.89c31.37,0,56.89,25.52,56.89,56.89 S796.47,178.34,765.1,178.34z M765.1,90.73c-16.94,0-30.72,13.78-30.72,30.72c0,16.94,13.78,30.72,30.72,30.72 c16.94,0,30.72-13.78,30.72-30.72C795.82,104.51,782.04,90.73,765.1,90.73z"/>
      <path fill="#060307" d="M821.99,176.89h-9.88c-9,0-16.29-7.29-16.29-16.29v-39.15h26.17V176.89z"/>
    </g>
  </g>
  <text x="80" y="210" fill="#334155" font-family="Inter, ui-sans-serif, system-ui" font-weight="600" font-size="20">开源的企业级 AI 原生 SaaS 平台</text>
  <g transform="translate(80,250)">
    <rect x="0" y="0" width="180" height="44" rx="10" fill="#6366F1"/>
    <text x="20" y="28" fill="#ffffff" font-size="16" font-family="Inter" font-weight="600">pnpm dev</text>
    <rect x="200" y="0" width="180" height="44" rx="10" fill="#F1F5F9" stroke="#E2E8F0"/>
    <text x="220" y="28" fill="#0F172A" font-size="16" font-family="Inter" font-weight="600">阅读文档</text>
  </g>
  <g transform="translate(80,320)" fill="#64748B" font-family="Inter" font-size="14">
    <text>AI 原生 • 多租户 • 企业级工程</text>
  </g>
</svg>
