<svg width="1200" height="420" viewBox="0 0 1200 420" fill="none" xmlns="http://www.w3.org/2000/svg">
  <defs>
    <linearGradient id="bg" x1="0" y1="0" x2="1200" y2="420" gradientUnits="userSpaceOnUse">
      <stop offset="0" stop-color="#0B1220"/>
      <stop offset="1" stop-color="#0A0F1A"/>
    </linearGradient>
    <radialGradient id="glow" cx="0" cy="0" r="1" gradientUnits="userSpaceOnUse" gradientTransform="translate(950 80) rotate(45) scale(360 220)">
      <stop offset="0" stop-color="#6366F1" stop-opacity="0.45"/>
      <stop offset="1" stop-color="#6366F1" stop-opacity="0"/>
    </radialGradient>
  </defs>
  <rect width="1200" height="420" rx="24" fill="url(#bg)"/>
  <ellipse cx="930" cy="100" rx="300" ry="180" fill="url(#glow)"/>
  <g transform="translate(80,120)">
    <rect x="0" y="-60" width="64" height="64" rx="12" fill="#0F172A" stroke="#1F2937"/>
    <path d="M16 0 V-40 h12 l28 35 V-40 h12 V0 h-12 L28 -24 V0 H16z" fill="#A5B4FC"/>
    <circle cx="50" cy="-8" r="6" fill="#2DD4BF"/>
  </g>
  <text x="180" y="160" fill="#F8FAFC" font-family="Inter, ui-sans-serif, system-ui" font-weight="800" font-size="38">Nebutra Sailor</text>
  <text x="180" y="202" fill="#94A3B8" font-family="Inter, ui-sans-serif, system-ui" font-weight="600" font-size="20">开源的企业级 AI 原生 SaaS 平台</text>
  <g transform="translate(180,240)">
    <rect x="0" y="0" width="220" height="44" rx="10" fill="#6366F1"/>
    <text x="20" y="28" fill="#ffffff" font-size="16" font-family="Inter" font-weight="600">pnpm dev</text>
    <rect x="240" y="0" width="260" height="44" rx="10" fill="#111827" stroke="#334155"/>
    <text x="260" y="28" fill="#F8FAFC" font-size="16" font-family="Inter" font-weight="600">阅读使用文档</text>
  </g>
  <g transform="translate(180,310)" fill="#94A3B8" font-family="Inter" font-size="14">
    <text>AI 原生 • 多租户 • 企业级工程</text>
  </g>
</svg>
