<?xml version="1.0" encoding="utf-8"?>
<!-- Generator: Adobe Illustrator 26.5.0, SVG Export Plug-In . SVG Version: 6.00 Build 0)  -->
<svg version="1.1" id="图层_1" xmlns="http://www.w3.org/2000/svg" xmlns:xlink="http://www.w3.org/1999/xlink" x="0px" y="0px"
	 viewBox="0 0 1063.48 208.06" style="enable-background:new 0 0 1063.48 208.06;" xml:space="preserve">
<style type="text/css">
	.st0{fill:#060307;}
	.st1{fill:url(#SVGID_1_);}
	.st2{fill:url(#SVGID_00000107587453121898495360000011105250505705074304_);}
	.st3{clip-path:url(#SVGID_00000056403690353322274460000013370444488091245190_);}
	.st4{clip-path:url(#SVGID_00000128463911771022779240000008026404290764429756_);}
	.st5{fill:url(#SVGID_00000096762669400994844810000011493491863978899359_);}
	.st6{fill:url(#SVGID_00000066507643565860808830000013063549045527931566_);}
	.st7{clip-path:url(#SVGID_00000042010983354273476560000015633520196708404394_);}
	.st8{clip-path:url(#SVGID_00000024680546794140721400000018400506410648490631_);}
	.st9{fill:url(#SVGID_00000001645456039756139880000011485171649881159331_);}
	.st10{fill:url(#SVGID_00000048485360354087425570000011303937519131643565_);}
	.st11{clip-path:url(#SVGID_00000113318896071443152100000016986967391272736154_);}
	.st12{clip-path:url(#SVGID_00000014615324073240367130000014969869413845782409_);}
	.st13{fill:url(#SVGID_00000144322820063495492080000012107459417423123382_);}
	.st14{fill:url(#SVGID_00000031184104802604692230000007484423053193720459_);}
	.st15{clip-path:url(#SVGID_00000149374752065208052250000004401377420970421633_);}
	.st16{clip-path:url(#SVGID_00000166675271762795326580000014784245643909880476_);}
	.st17{fill:#FFFFFF;}
	.st18{fill:url(#SVGID_00000008145037905138985300000011393071623793640871_);}
	.st19{fill:url(#SVGID_00000112617061756901658430000016246051239592928173_);}
	.st20{clip-path:url(#SVGID_00000010306266511441464280000017089515937370644623_);}
	.st21{clip-path:url(#SVGID_00000021813410311415461490000000840176402913380747_);}
</style>
<g>
	<g>
		<g>
			<g>
				<path class="st0" d="M396.6,176.89h-15.66c-5.54,0-10.7-2.81-13.7-7.47l-57.21-88.84v80.02c0,9-7.29,16.29-16.29,16.29h-9.88
					V29.72h15.66c5.54,0,10.7,2.81,13.7,7.47l57.21,88.84V46.01c0-9,7.29-16.29,16.29-16.29h9.88V176.89z"/>
			</g>
			<g>
				<path class="st0" d="M736.39,178.33c-27.71,0.48-50.39-22.68-50.39-50.4V64.56h9.88c9,0,16.29,7.29,16.29,16.29v47.39
					c0,12.65,9.82,23.44,22.46,23.92c13.29,0.5,24.26-10.16,24.26-23.34V80.85c0-9,7.29-16.29,16.29-16.29h9.88v64.25
					C785.06,155.83,763.31,177.87,736.39,178.33z"/>
			</g>
			<g>
				<g>
					<path class="st0" d="M861.3,176.89c-29.84,0-54.11-24.27-54.11-54.11V46.01c0-9,7.29-16.29,16.29-16.29h9.88v93.05
						c0,11.77,7.31,21.86,17.64,25.98c6.21,2.47,10.31,8.46,10.31,15.14V176.89z"/>
				</g>
				<g>
					<path class="st0" d="M845.01,93.38h-24.74V67.21h41.03v9.88C861.3,86.09,854.01,93.38,845.01,93.38z"/>
				</g>
			</g>
			<g>
				<path class="st0" d="M908.55,176.91h-9.88c-9,0-16.29-7.29-16.29-16.29v-37.28c0-32.41,26.37-58.78,58.78-58.78v12.68
					c0,6.93-4.41,13.05-10.94,15.38c-12.62,4.51-21.68,16.58-21.68,30.73V176.91z"/>
			</g>
			<g>
				<g>
					<path class="st0" d="M577.63,176.89h-9.88c-9,0-16.29-7.29-16.29-16.29V29.72h9.88c9,0,16.29,7.29,16.29,16.29V176.89z"/>
				</g>
				<g>
					<path class="st0" d="M608.35,178.34c-31.37,0-56.89-25.52-56.89-56.89s25.52-56.89,56.89-56.89s56.89,25.52,56.89,56.89
						S639.72,178.34,608.35,178.34z M608.35,90.73c-16.94,0-30.72,13.78-30.72,30.72c0,16.94,13.78,30.72,30.72,30.72
						c16.94,0,30.72-13.78,30.72-30.72C639.07,104.51,625.29,90.73,608.35,90.73z"/>
				</g>
			</g>
			<g>
				<g>
					<path class="st0" d="M1063.48,176.89h-9.88c-9,0-16.29-7.29-16.29-16.29v-39.15h26.17V176.89z"/>
				</g>
				<g>
					<path class="st0" d="M1006.59,178.34c-31.37,0-56.89-25.52-56.89-56.89s25.52-56.89,56.89-56.89
						c31.37,0,56.89,25.52,56.89,56.89S1037.96,178.34,1006.59,178.34z M1006.59,90.73c-16.94,0-30.72,13.78-30.72,30.72
						c0,16.94,13.78,30.72,30.72,30.72c16.94,0,30.72-13.78,30.72-30.72C1037.32,104.51,1023.53,90.73,1006.59,90.73z"/>
				</g>
			</g>
			<g>
				<g>
					<rect x="431.3" y="105.91" class="st0" width="95.58" height="26.17"/>
				</g>
				<path class="st0" d="M495.08,144.73c-6.16,5.3-14.43,8.21-23.36,7.26c-13.99-1.49-25.34-12.58-27.12-26.54
					c-2.55-20.08,14.42-37.04,34.5-34.47c13.77,1.76,24.77,12.85,26.46,26.62c0.63,5.12-0.02,10.03-1.66,14.47h27.06
					c0.65-3.45,1.01-7,1.01-10.63c0-32.81-27.92-59.23-61.26-56.73c-27.81,2.09-50.27,24.54-52.36,52.36
					c-2.5,33.33,23.91,61.26,56.73,61.26c21.36,0,40-11.84,49.73-29.3l-11.19-6.21C507.64,139.52,500.25,140.28,495.08,144.73z"/>
			</g>
		</g>
	</g>
	<path class="st0" d="M217.1,76.62c-5.2-9.01-12.8-16.2-21.72-20.95c0.15-9.74-2.28-19.51-7.3-28.2l-0.06-0.1
		C178.3,10.53,160.18,0.04,140.73,0c0,0-0.01,0-0.01,0h-0.09H83.17C63.66,0,45.48,10.5,35.72,27.39L7.32,76.6
		c-9.76,16.9-9.76,37.89,0,54.79c5.2,9.01,12.8,16.2,21.72,20.95c-0.16,9.76,2.27,19.56,7.3,28.27l0.05,0.09
		c9.72,16.84,27.85,27.33,47.3,27.37c0.04,0,0.07,0,0.11,0c0.77,0,1.54-0.02,2.31-0.06h55.14c19.51,0,37.69-10.5,47.45-27.39
		l28.41-49.2C226.86,114.51,226.86,93.52,217.1,76.62z M141.25,196.83h-24.27c5.68-4.32,10.54-9.77,14.22-16.13l42.68-73.89
		l14.2-24.59c2.64-4.57,4.56-9.45,5.77-14.46c5.49,3.66,10.18,8.57,13.57,14.46c7.77,13.45,7.77,30.16,0,43.61l-28.41,49.2
		C171.26,188.48,156.78,196.83,141.25,196.83z M46.01,175c-3.26-5.64-5.14-11.86-5.66-18.17c-0.11-1.37-0.16-2.74-0.15-4.11
		c3.79,3.65,8.77,5.81,14.19,6.05c0.34,0.02,0.67,0.03,1.02,0.03h31.61l25.18-43.61l8.06,13.95l1.3,2.25
		c0.62,1.08,1.33,2.07,2.09,3.01c1.23,1.5,2.63,2.82,4.18,3.92c3.6,2.58,7.95,4.03,12.6,4.06l-18.9,32.73
		c-5.99,10.37-15.97,17.7-27.35,20.51c-2.33,0.57-4.72,0.96-7.15,1.14c-1.07,0.08-2.14,0.12-3.23,0.12c-0.03,0-0.06,0-0.09,0
		c-1.06,0-2.12-0.05-3.17-0.13c-14.26-1.08-27.27-9.17-34.48-21.66L46.01,175z M107.52,11.17c-5.71,4.33-10.6,9.8-14.29,16.19
		L64.97,76.27c-0.07,0.12-0.16,0.24-0.23,0.37l-28.39,49.17c-0.05,0.08-0.08,0.16-0.13,0.24c-2.57,4.5-4.46,9.29-5.65,14.21
		c-5.5-3.66-10.19-8.57-13.59-14.46c-7.77-13.45-7.77-30.16,0-43.61l28.41-49.2c7.77-13.45,22.24-21.81,37.77-21.81H107.52z
		 M178.41,33.06c3.25,5.63,5.13,11.82,5.66,18.11c0.12,1.38,0.17,2.77,0.15,4.16c-3.92-3.79-9.12-5.98-14.78-6.09
		c-0.15,0-0.3-0.01-0.45-0.01h-31.61L112.2,92.84l-8.06-13.95l-1.3-2.25c-0.62-1.08-1.33-2.07-2.09-3.01
		c-1.23-1.5-2.63-2.82-4.18-3.92c-3.59-2.57-7.93-4.02-12.57-4.06l18.89-32.7c5.98-10.36,15.95-17.69,27.31-20.5
		c2.33-0.58,4.73-0.96,7.15-1.15c1.08-0.08,2.17-0.13,3.26-0.13c0.03,0,0.06,0,0.08,0c1.05,0,2.1,0.05,3.14,0.12
		c14.27,1.07,27.29,9.16,34.5,21.66L178.41,33.06z"/>
</g>
</svg>
