<?xml version="1.0" encoding="utf-8"?>
<!-- Generator: Adobe Illustrator 26.5.0, SVG Export Plug-In . SVG Version: 6.00 Build 0)  -->
<svg version="1.1" id="图层_1" xmlns="http://www.w3.org/2000/svg" xmlns:xlink="http://www.w3.org/1999/xlink" x="0px" y="0px"
	 viewBox="0 0 1268.65 281.92" style="enable-background:new 0 0 1268.65 281.92;" xml:space="preserve">
<style type="text/css">
	.st0{fill:#060307;}
	.st1{fill:url(#SVGID_1_);}
	.st2{fill:url(#SVGID_00000134247005543149315330000010044338175574601362_);}
	.st3{clip-path:url(#SVGID_00000062900043060916875350000001066418528784844710_);}
	.st4{clip-path:url(#SVGID_00000048502848313837393260000016078978148933483702_);}
	.st5{fill:url(#SVGID_00000044876188711463944950000000715931457540512643_);}
	.st6{fill:url(#SVGID_00000012432312769858350740000012243359806654398396_);}
	.st7{clip-path:url(#SVGID_00000170976134625195881050000007916486662670905250_);}
	.st8{clip-path:url(#SVGID_00000148630591305966331860000009216114940440915892_);}
	.st9{fill:url(#SVGID_00000018957802444560367880000016727783373487442589_);}
	.st10{fill:url(#SVGID_00000127035183566440297010000016632349100850612109_);}
	.st11{clip-path:url(#SVGID_00000097483224721430236120000007557067578728525195_);}
	.st12{clip-path:url(#SVGID_00000145039014247071577170000016797041315926496171_);}
	.st13{fill:url(#SVGID_00000147939449734651421610000000720470892297103235_);}
	.st14{fill:url(#SVGID_00000170993878345097029760000013701919068701813437_);}
	.st15{clip-path:url(#SVGID_00000002378904020660732540000007513451517458020016_);}
	.st16{clip-path:url(#SVGID_00000127005749490615065370000017097881056363829128_);}
	.st17{fill:#FFFFFF;}
	.st18{fill:url(#SVGID_00000026844817326417117610000004336202860255564186_);}
	.st19{fill:url(#SVGID_00000146463486054204426760000011060854623417847999_);}
	.st20{clip-path:url(#SVGID_00000086685739254554962770000005754181090189213824_);}
	.st21{clip-path:url(#SVGID_00000129891732782746721090000017072288572457114040_);}
</style>
<g>
	<g>
		<g>
			<g>
				<path d="M263.33,34.93H15.22V21.25c0-7.55,6.12-13.67,13.67-13.67H277v13.67C277,28.8,270.88,34.93,263.33,34.93z"/>
			</g>
			<g>
				<path d="M278.55,116.92H0v-13.67c0-7.55,6.12-13.67,13.67-13.67h278.55v13.67C292.23,110.79,286.1,116.92,278.55,116.92z"/>
			</g>
			<path d="M282.36,247.09l-31.29-85.98h-48.5l26.91,73.92c1.62,4.46-1.68,9.17-6.42,9.17H69.18c-4.75,0-8.05-4.72-6.42-9.17
				l45.35-124.59H59.6L9.86,247.09c-4.33,11.89,4.48,24.47,17.13,24.47h238.24C277.89,271.56,286.69,258.98,282.36,247.09z"/>
		</g>
		<g>
			<path d="M860.52,5.77v13.67c0,7.55,6.12,13.67,13.67,13.67h19.73c3.78,0,6.84,3.06,6.84,6.84l0,66.65c0,3.78-3.06,6.84-6.84,6.84
				h-35.18c-3.78,0-6.84-3.06-6.84-6.84l0-87.16c0-7.55-6.12-13.67-13.67-13.67h-28.49l0,103.11c0,17.62,14.28,31.9,31.9,31.9h69.36
				c17.62,0,31.9-14.28,31.9-31.9l0-71.21c0-17.62-14.28-31.9-31.9-31.9H860.52z"/>
			<g>
				<g>
					<path d="M862.66,228.76H720v-13.67c0-7.55,6.12-13.67,13.67-13.67h142.66v13.67C876.33,222.63,870.21,228.76,862.66,228.76z"/>
				</g>
				<path d="M713.08,148.25v13.67c0,7.55,6.12,13.67,13.67,13.67h162.6c3.78,0,6.84,3.06,6.84,6.84l0,65.31
					c0,3.78-3.06,6.84-6.84,6.84H711.31c-3.78,0-6.84-3.06-6.84-6.84l0-85.82c0-7.55-6.12-13.67-13.67-13.67h-28.49l0,101.77
					c0,17.62,14.28,31.9,31.9,31.9h212.24c17.62,0,31.9-14.28,31.9-31.9l0-69.86c0-17.62-14.28-31.9-31.9-31.9H713.08z"/>
			</g>
			<g>
				<path d="M785.08,36.3H683.45V8.95h115.3v13.67C798.75,30.18,792.63,36.3,785.08,36.3z"/>
			</g>
			<g>
				<path d="M787.31,91.59H659.04V77.91c0-7.55,6.12-13.67,13.67-13.67h128.26v13.67C800.98,85.47,794.86,91.59,787.31,91.59z"/>
			</g>
			<path d="M721.13,23.99l-62.1,116.79h40.67c6.74,0,12.93-3.72,16.1-9.67l56.96-107.12H721.13z"/>
			<path d="M705.43,30.95l5.44-30.83h-34.81c-6.64,0-12.31,4.76-13.47,11.3l-5.44,30.83h34.81
				C698.6,42.25,704.27,37.48,705.43,30.95z"/>
			<path d="M718.35,77.92l28.28,53.2c3.16,5.95,9.36,9.67,16.1,9.67h40.67l-33.43-62.87H718.35z"/>
		</g>
		<g>
			<path d="M1038.99,91.51v13.67c0,7.55,6.12,13.67,13.67,13.67h33.82c3.78,0,6.84,3.06,6.84,6.84v18.98h-62.94l0-39.49
				c0-7.55-6.12-13.67-13.67-13.67h-28.49l0,190.41h23.93c10.07,0,18.23-8.16,18.23-18.23v-38.51h62.94v22.55
				c0,3.78-3.06,6.84-6.84,6.84h-11.27c-7.55,0-13.67,6.12-13.67,13.67v13.67l42.04,0c17.62,0,31.91-14.28,31.91-31.9l0-126.6
				c0-17.62-14.28-31.9-31.9-31.9H1038.99z M1030.38,197.84v-25.82h62.94l0,25.82H1030.38z"/>
			<path d="M1122.14,17.63h-48.5l10.48,28.8c1.35,3.72-1.4,7.65-5.35,7.65h-34.62c-3.95,0-6.71-3.93-5.35-7.65l16.86-46.31h-48.5
				l-20.69,56.84c-4.33,11.89,4.48,24.47,17.13,24.47h115.73c12.65,0,21.46-12.58,17.13-24.47L1122.14,17.63z"/>
			<g>
				<path d="M1268.65,26.37v-16.3l-73.99,13.05V0h-42.16l0,84.91c0,17.62,14.28,31.9,31.9,31.9h84.24v-13.67
					c0-7.55-6.12-13.67-13.67-13.67h-53.48c-3.78,0-6.84-3.06-6.84-6.84V50.89l62.69-11.05C1263.88,38.68,1268.65,33,1268.65,26.37z
					"/>
				<path d="M1194.66,131.38h-42.16l0,118.63c0,17.62,14.28,31.9,31.9,31.9l84.24,0v-13.67c0-7.55-6.12-13.67-13.67-13.67h-53.48
					c-3.78,0-6.84-3.06-6.84-6.84v-65.47l62.69-11.05c6.53-1.15,11.3-6.83,11.3-13.47v-16.3l-73.99,13.05V131.38z"/>
			</g>
		</g>
		<g>
			<g>
				<path d="M453.15,36.3H350.74V8.95h116.08v13.67C466.82,30.18,460.7,36.3,453.15,36.3z"/>
			</g>
			<g>
				<path d="M603.96,41.21H475.13V27.53c0-7.55,6.12-13.67,13.67-13.67h128.83v13.67C617.63,35.08,611.51,41.21,603.96,41.21z"/>
			</g>
			<g>
				<path d="M566.74,13.79l0,6.72h-42.16l0-20.39l28.49,0C560.62,0.12,566.74,6.24,566.74,13.79z"/>
			</g>
			<g>
				<g>
					<path d="M458.53,163.8H320.29v-13.67c0-7.55,6.12-13.67,13.67-13.67H472.2v13.67C472.2,157.68,466.08,163.8,458.53,163.8z"/>
				</g>
				<g>
					<path d="M458.53,247.2H431v-27.35h41.2v13.67C472.2,241.08,466.08,247.2,458.53,247.2z"/>
				</g>
				<path d="M380.43,53.06v13.67c0,7.55,6.12,13.67,13.67,13.67h19.73c3.78,0,6.84,3.06,6.84,6.84l0,132.61h-42.02
					c-3.78,0-6.84-3.06-6.84-6.84l0-146.28c0-7.55-6.12-13.67-13.67-13.67h-28.49l0,162.24c0,17.62,14.28,31.9,31.9,31.9h101.27
					l0-162.24c0-17.62-14.28-31.9-31.9-31.9H380.43z"/>
			</g>
			<g>
				<path d="M567.66,133.76l0,116.25c0,17.62-14.28,31.9-31.9,31.9h-7.98l0-134.49c0-7.55,6.12-13.67,13.67-13.67H567.66z"/>
			</g>
			<path d="M621.1,97.29l-14.31-39.33h-48.5l10.48,28.8c1.35,3.72-1.4,7.65-5.35,7.65h-35.85c-3.95,0-6.71-3.93-5.35-7.65
				l20.11-55.26h-48.5l-23.94,65.78c-4.33,11.89,4.48,24.47,17.13,24.47h116.96C616.62,121.76,625.43,109.18,621.1,97.29z"/>
			<path d="M329.88,11.42l-6.56,37.18h34.81c6.64,0,12.31-4.76,13.47-11.3l6.56-37.18h-34.81C336.71,0.12,331.03,4.88,329.88,11.42z
				"/>
			<polygon points="379.69,88.66 385.18,127.46 412.8,127.46 407.31,88.66 			"/>
			<polygon points="379.69,172.63 385.18,211.43 412.8,211.43 407.31,172.63 			"/>
			<path d="M420.67,237.35v10.38c0,3.77-3.06,6.84-6.84,6.84h-11.27c-7.55,0-13.67,6.12-13.67,13.67v13.67h42.04
				c17.62,0,31.91-14.28,31.91-31.9v-12.66H420.67z"/>
			<path d="M621.42,252.35l0.01-0.02c-3.62-2.69-5.89-6.96-5.89-11.66V133.76h-26.21c-7.55,0-13.67,6.12-13.67,13.67v94.61
				c0,22.02,17.85,39.88,39.88,39.88v0h10.32v-21.17C625.86,256.85,624.57,254.64,621.42,252.35z"/>
			<path d="M474.2,252.35l-0.01-0.02c3.62-2.69,5.89-6.96,5.89-11.66v-93.23c0-7.55,6.12-13.67,13.67-13.67h26.21v108.28
				c0,22.02-17.85,39.88-39.88,39.88v0h-10.32v-21.17C469.77,256.85,471.05,254.64,474.2,252.35z"/>
		</g>
	</g>
</g>
</svg>
