<?xml version="1.0" encoding="utf-8"?>
<!-- Generator: Adobe Illustrator 26.5.0, SVG Export Plug-In . SVG Version: 6.00 Build 0)  -->
<svg version="1.1" id="图层_1" xmlns="http://www.w3.org/2000/svg" xmlns:xlink="http://www.w3.org/1999/xlink" x="0px" y="0px"
	 viewBox="0 0 800 738.46" style="enable-background:new 0 0 800 738.46;" xml:space="preserve">
<style type="text/css">
	.st0{fill:#060307;}
	.st1{fill:url(#SVGID_1_);}
	.st2{fill:url(#SVGID_00000006683050152701398590000005426051805414397579_);}
	.st3{clip-path:url(#SVGID_00000046299254806062837430000016725920785604949171_);}
	.st4{clip-path:url(#SVGID_00000090982514347811353220000013912849348169915018_);}
	.st5{fill:url(#SVGID_00000181052200714758694620000016376592835213837193_);}
	.st6{fill:url(#SVGID_00000134235595367923452850000008780040721803938485_);}
	.st7{clip-path:url(#SVGID_00000113312244055604033040000008748904811709127099_);}
	.st8{clip-path:url(#SVGID_00000113352198436037057200000016516665481361045919_);}
	.st9{fill:url(#SVGID_00000180354488969409002500000015797031282162468247_);}
	.st10{fill:url(#SVGID_00000045605610438959512120000002491195136347495075_);}
	.st11{clip-path:url(#SVGID_00000045613430414394847110000015150299343041459092_);}
	.st12{clip-path:url(#SVGID_00000130632337176078729800000015970909549401790889_);}
	.st13{fill:url(#SVGID_00000045589480452682950740000011224644553060431767_);}
	.st14{fill:url(#SVGID_00000132045811242092421530000001944656728576334007_);}
	.st15{clip-path:url(#SVGID_00000066499856051706411670000009376029686648913033_);}
	.st16{clip-path:url(#SVGID_00000125601815997513543290000006379918479687412671_);}
	.st17{fill:#FFFFFF;}
	.st18{fill:url(#SVGID_00000064323741049480465490000003177627901528065466_);}
	.st19{fill:url(#SVGID_00000027598584564270138630000002276364744984556476_);}
	.st20{clip-path:url(#SVGID_00000092435838574156325190000009180693188964400061_);}
	.st21{clip-path:url(#SVGID_00000010310437828866515960000008548806068410788026_);}
</style>
<path class="st17" d="M773.92,271.95c-18.55-31.99-45.64-57.5-77.44-74.36c0.52-34.57-8.13-69.25-26.01-100.09l-0.21-0.36
	C635.6,37.36,571,0.14,501.66,0c-0.01,0-0.03,0-0.04,0h-0.34h-204.8c-69.55,0-134.36,37.26-169.14,97.23L26.08,271.86
	c-34.78,59.97-34.78,134.48,0,194.46c18.55,31.99,45.64,57.51,77.44,74.36c-0.56,34.64,8.1,69.41,26.02,100.32l0.19,0.33
	c34.67,59.78,99.27,97,168.6,97.14c0.13,0,0.25,0,0.38,0c2.76,0,5.51-0.08,8.25-0.2h196.55c69.55,0,134.36-37.26,169.14-97.23
	l101.26-174.63C808.69,406.44,808.69,331.93,773.92,271.95z M503.52,698.61H417c20.24-15.35,37.59-34.69,50.68-57.25L619.82,379.1
	l50.64-87.29c9.42-16.24,16.26-33.54,20.58-51.34c19.58,13,36.28,30.42,48.39,51.31c27.68,47.74,27.68,107.06,0,154.8L638.16,621.21
	C610.48,668.95,558.89,698.61,503.52,698.61z M164.02,621.13c-11.61-20.03-18.33-42.1-20.19-64.49c-0.4-4.86-0.58-9.73-0.52-14.6
	c13.5,12.95,31.25,20.62,50.59,21.48c1.2,0.05,2.4,0.12,3.62,0.12h112.69l89.76-154.8l28.72,49.52l4.63,7.98
	c2.21,3.82,4.73,7.36,7.46,10.68c4.38,5.33,9.39,9.99,14.89,13.92c12.84,9.15,28.35,14.29,44.91,14.42l-67.38,116.15
	c-21.36,36.82-56.93,62.83-97.49,72.79c-8.31,2.04-16.84,3.41-25.49,4.05c-3.81,0.28-7.64,0.44-11.5,0.44c-0.1,0-0.2,0-0.31,0
	c-3.78-0.01-7.55-0.17-11.29-0.45c-50.82-3.82-97.19-32.55-122.91-76.89L164.02,621.13z M383.26,39.66
	c-20.36,15.38-37.8,34.78-50.95,57.45l-100.7,173.6c-0.27,0.44-0.56,0.86-0.81,1.31L129.61,446.52c-0.16,0.28-0.3,0.57-0.46,0.85
	c-9.18,15.98-15.88,32.98-20.14,50.45c-19.6-13-36.31-30.43-48.43-51.34c-27.68-47.74-27.68-107.06,0-154.8l101.26-174.63
	c27.68-47.74,79.28-77.4,134.65-77.4H383.26z M635.98,117.33c11.58,19.97,18.29,41.97,20.17,64.29c0.41,4.91,0.59,9.83,0.54,14.75
	c-13.98-13.44-32.53-21.21-52.68-21.6c-0.53-0.01-1.06-0.05-1.59-0.05H489.73l-89.76,154.8L371.26,280l-4.63-7.99
	c-2.21-3.82-4.73-7.36-7.46-10.68c-4.38-5.33-9.38-9.99-14.89-13.92c-12.81-9.13-28.27-14.27-44.79-14.42l67.32-116.05
	c21.33-36.78,56.85-62.78,97.35-72.76c8.32-2.05,16.84-3.42,25.5-4.08c3.85-0.29,7.73-0.45,11.63-0.45c0.1,0,0.2,0,0.3,0
	c3.75,0.01,7.47,0.16,11.18,0.44c50.87,3.79,97.28,32.52,123,76.87L635.98,117.33z"/>
</svg>
