<?xml version="1.0" encoding="utf-8"?>
<!-- Generator: Adobe Illustrator 26.5.0, SVG Export Plug-In . SVG Version: 6.00 Build 0)  -->
<svg version="1.1" id="图层_1" xmlns="http://www.w3.org/2000/svg" xmlns:xlink="http://www.w3.org/1999/xlink" x="0px" y="0px"
	 viewBox="0 0 806.99 896.99" style="enable-background:new 0 0 806.99 896.99;" xml:space="preserve">
<style type="text/css">
	.st0{fill:#060307;}
	.st1{fill:url(#SVGID_1_);}
	.st2{fill:url(#SVGID_00000105393027331602425530000009113543719416830092_);}
	.st3{clip-path:url(#SVGID_00000082329095036185977150000000889756273025440403_);}
	.st4{clip-path:url(#SVGID_00000005242547415543873780000002957998166609839760_);}
	.st5{fill:url(#SVGID_00000181794659103374451650000005782012829379891072_);}
	.st6{fill:url(#SVGID_00000159433336833310133330000008644070098122453951_);}
	.st7{clip-path:url(#SVGID_00000098190457792502499760000012733196872778361750_);}
	.st8{clip-path:url(#SVGID_00000123420350638647746010000015014051894015140229_);}
	.st9{fill:url(#SVGID_00000165918954415497919780000014049681983266954428_);}
	.st10{fill:url(#SVGID_00000106124959724686371840000009159709159749175425_);}
	.st11{clip-path:url(#SVGID_00000147190747477273376980000011095957297749009071_);}
	.st12{clip-path:url(#SVGID_00000017505596323192610040000014750550398219196334_);}
	.st13{fill:url(#SVGID_00000173163000132952543170000002484831669758532520_);}
	.st14{fill:url(#SVGID_00000157293722515353166650000002208172938540037524_);}
	.st15{clip-path:url(#SVGID_00000144315447566742437350000007984406419979969152_);}
	.st16{clip-path:url(#SVGID_00000048468508492177150990000015797740857218550680_);}
	.st17{fill:#FFFFFF;}
	.st18{fill:url(#SVGID_00000081610304816627993100000014794287386625221256_);}
	.st19{fill:url(#SVGID_00000052803756169608054710000015821003858254539185_);}
	.st20{clip-path:url(#SVGID_00000083804203223125075030000003968460948673879194_);}
	.st21{clip-path:url(#SVGID_00000112618113868805616990000006750822876700755878_);}
</style>
<g>
	<path class="st0" d="M614.45,154.1c-10.46-18.12-25.75-32.58-43.69-42.14c0.3-19.59-4.59-39.24-14.67-56.71l-0.12-0.21
		c-19.56-33.87-56-54.96-95.12-55.04c-0.01,0-0.01,0-0.02,0h-0.19H345.09c-39.24,0-75.8,21.11-95.42,55.09l-57.13,98.95
		c-19.62,33.98-19.62,76.2,0,110.19c10.46,18.12,25.75,32.58,43.69,42.14c-0.31,19.63,4.57,39.33,14.68,56.85l0.11,0.19
		c19.56,33.87,56.01,54.97,95.12,55.04c0.07,0,0.14,0,0.22,0c1.56,0,3.11-0.05,4.65-0.11H461.9c39.24,0,75.8-21.11,95.42-55.09
		l57.13-98.95C634.07,230.3,634.07,188.08,614.45,154.1z M461.9,395.86h-48.81c11.42-8.7,21.21-19.65,28.59-32.44l85.83-148.6
		l28.57-49.46c5.31-9.2,9.17-19.01,11.61-29.09c11.05,7.36,20.47,17.24,27.3,29.08c15.62,27.05,15.62,60.66,0,87.71L537.86,352
		C522.24,379.05,493.14,395.86,461.9,395.86z M270.36,351.96c-6.55-11.35-10.34-23.86-11.39-36.54c-0.23-2.75-0.33-5.51-0.29-8.27
		c7.62,7.34,17.63,11.69,28.54,12.17c0.68,0.03,1.36,0.07,2.04,0.07h63.58l50.64-87.71l16.2,28.06l2.61,4.52
		c1.25,2.16,2.67,4.17,4.21,6.05c2.47,3.02,5.3,5.66,8.4,7.89c7.24,5.19,15.99,8.1,25.34,8.17l-38.01,65.82
		c-12.05,20.86-32.12,35.6-55,41.25c-4.69,1.16-9.5,1.93-14.38,2.3c-2.15,0.16-4.31,0.25-6.49,0.25c-0.06,0-0.12,0-0.17,0
		c-2.13,0-4.26-0.09-6.37-0.25c-28.67-2.16-54.83-18.44-69.34-43.57L270.36,351.96z M394.05,22.47
		c-11.49,8.71-21.33,19.71-28.74,32.55l-56.81,98.37c-0.15,0.25-0.31,0.49-0.46,0.74l-57.09,98.88c-0.09,0.16-0.17,0.32-0.26,0.48
		c-5.18,9.05-8.96,18.69-11.36,28.59c-11.06-7.37-20.49-17.24-27.32-29.09c-15.62-27.05-15.62-60.66,0-87.71l57.13-98.95
		c15.62-27.05,44.73-43.86,75.96-43.86H394.05z M536.63,66.48c6.53,11.32,10.32,23.78,11.38,36.43c0.23,2.78,0.33,5.57,0.3,8.36
		c-7.89-7.62-18.35-12.02-29.72-12.24c-0.3-0.01-0.6-0.03-0.9-0.03h-63.58l-50.64,87.71l-16.2-28.06l-2.61-4.53
		c-1.25-2.16-2.67-4.17-4.21-6.05c-2.47-3.02-5.29-5.66-8.4-7.89c-7.23-5.18-15.95-8.08-25.27-8.17l37.98-65.76
		c12.04-20.84,32.07-35.57,54.92-41.23c4.69-1.16,9.5-1.94,14.39-2.31c2.17-0.16,4.36-0.26,6.56-0.26c0.05,0,0.11,0,0.17,0
		c2.11,0,4.22,0.09,6.31,0.25c28.7,2.15,54.89,18.43,69.39,43.56L536.63,66.48z"/>
	<g>
		<g>
			<g>
				<path class="st0" d="M180.43,895.82h-12.61c-4.46,0-8.61-2.27-11.03-6.01l-46.06-71.52v64.42c0,7.24-5.87,13.12-13.12,13.12
					h-7.95V777.34h12.61c4.46,0,8.61,2.27,11.03,6.01l46.06,71.52v-64.42c0-7.24,5.87-13.12,13.12-13.12h7.95V895.82z"/>
			</g>
			<g>
				<path class="st0" d="M453.99,896.98c-22.31,0.38-40.57-18.26-40.57-40.58v-51.02h7.95c7.24,0,13.12,5.87,13.12,13.12v38.15
					c0,10.18,7.9,18.87,18.08,19.26c10.7,0.41,19.53-8.18,19.53-18.79V818.5c0-7.24,5.87-13.12,13.12-13.12h7.95v51.73
					C493.17,878.87,475.66,896.61,453.99,896.98z"/>
			</g>
			<g>
				<g>
					<path class="st0" d="M554.55,895.82c-24.02,0-43.57-19.54-43.57-43.57v-61.8c0-7.24,5.87-13.12,13.12-13.12h7.95v74.92
						c0,9.48,5.89,17.6,14.2,20.91c5,1.99,8.3,6.81,8.3,12.19V895.82z"/>
				</g>
				<g>
					<path class="st0" d="M541.43,828.59h-19.92v-21.07h33.03v7.95C554.55,822.72,548.68,828.59,541.43,828.59z"/>
				</g>
			</g>
			<g>
				<path class="st0" d="M592.59,895.84h-7.95c-7.24,0-13.12-5.87-13.12-13.12v-30.01c0-26.09,21.23-47.32,47.32-47.32v10.2
					c0,5.58-3.55,10.5-8.8,12.38c-10.16,3.63-17.45,13.35-17.45,24.74V895.84z"/>
			</g>
			<g>
				<g>
					<path class="st0" d="M326.17,895.82h-7.95c-7.24,0-13.12-5.87-13.12-13.12V777.34h7.95c7.24,0,13.12,5.87,13.12,13.12V895.82z"
						/>
				</g>
				<g>
					<path class="st0" d="M350.9,896.99c-25.26,0-45.8-20.55-45.8-45.8s20.55-45.8,45.8-45.8c25.26,0,45.8,20.55,45.8,45.8
						S376.16,896.99,350.9,896.99z M350.9,826.45c-13.64,0-24.73,11.1-24.73,24.73c0,13.64,11.1,24.73,24.73,24.73
						c13.64,0,24.73-11.1,24.73-24.73C375.63,837.55,364.54,826.45,350.9,826.45z"/>
				</g>
			</g>
			<g>
				<g>
					<path class="st0" d="M717.32,895.82h-7.95c-7.24,0-13.12-5.87-13.12-13.12v-31.52h21.07V895.82z"/>
				</g>
				<g>
					<path class="st0" d="M671.52,896.99c-25.26,0-45.8-20.55-45.8-45.8s20.55-45.8,45.8-45.8s45.8,20.55,45.8,45.8
						S696.78,896.99,671.52,896.99z M671.52,826.45c-13.64,0-24.73,11.1-24.73,24.73c0,13.64,11.1,24.73,24.73,24.73
						c13.64,0,24.73-11.1,24.73-24.73C696.26,837.55,685.16,826.45,671.52,826.45z"/>
				</g>
			</g>
			<g>
				<g>
					<rect x="208.36" y="838.67" class="st0" width="76.95" height="21.07"/>
				</g>
				<path class="st0" d="M259.71,869.93c-4.96,4.27-11.62,6.61-18.81,5.84c-11.26-1.2-20.4-10.13-21.83-21.36
					c-2.06-16.16,11.61-29.82,27.77-27.75c11.08,1.42,19.94,10.34,21.3,21.43c0.5,4.12-0.02,8.08-1.34,11.65h21.78
					c0.53-2.77,0.81-5.63,0.81-8.56c0-26.42-22.48-47.68-49.32-45.67c-22.39,1.68-40.47,19.76-42.15,42.15
					c-2.01,26.84,19.25,49.32,45.67,49.32c17.2,0,32.2-9.53,40.03-23.59l-9.01-5C269.82,865.73,263.87,866.35,259.71,869.93z"/>
			</g>
		</g>
	</g>
	<g>
		<g>
			<g>
				<path d="M167.51,560.3H9.68v-8.7c0-4.8,3.89-8.7,8.7-8.7H176.2v8.7C176.2,556.41,172.31,560.3,167.51,560.3z"/>
			</g>
			<g>
				<path d="M177.19,612.46H0v-8.7c0-4.8,3.89-8.7,8.7-8.7h177.19v8.7C185.89,608.56,181.99,612.46,177.19,612.46z"/>
			</g>
			<path d="M179.61,695.26l-19.91-54.69h-30.85l17.11,47.02c1.03,2.84-1.07,5.84-4.09,5.84H44c-3.02,0-5.12-3-4.09-5.84l28.84-79.25
				H37.91L6.27,695.26c-2.75,7.56,2.85,15.56,10.9,15.56h151.54C176.76,710.83,182.36,702.83,179.61,695.26z"/>
		</g>
		<g>
			<path d="M547.38,541.76v8.7c0,4.8,3.89,8.7,8.7,8.7h12.55c2.4,0,4.35,1.95,4.35,4.35v42.4c0,2.4-1.95,4.35-4.35,4.35h-22.38
				c-2.4,0-4.35-1.95-4.35-4.35l0-55.44c0-4.8-3.89-8.7-8.7-8.7h-18.12l0,65.59c0,11.21,9.09,20.29,20.29,20.29h44.12
				c11.21,0,20.29-9.09,20.29-20.29l0-45.29c0-11.21-9.09-20.29-20.29-20.29H547.38z"/>
			<g>
				<g>
					<path d="M548.74,683.6h-90.74v-8.7c0-4.8,3.89-8.7,8.7-8.7h90.74v8.7C557.44,679.71,553.54,683.6,548.74,683.6z"/>
				</g>
				<path d="M453.6,632.39v8.7c0,4.8,3.89,8.7,8.7,8.7h103.43c2.4,0,4.35,1.95,4.35,4.35l0,41.54c0,2.4-1.95,4.35-4.35,4.35H452.47
					c-2.4,0-4.35-1.95-4.35-4.35l0-54.59c0-4.8-3.89-8.7-8.7-8.7H421.3l0,64.74c0,11.21,9.09,20.29,20.29,20.29h135
					c11.21,0,20.29-9.09,20.29-20.29l0-44.44c0-11.21-9.09-20.29-20.29-20.29H453.6z"/>
			</g>
			<g>
				<path d="M499.39,561.18h-64.65v-17.4h73.34v8.7C508.09,557.28,504.19,561.18,499.39,561.18z"/>
			</g>
			<g>
				<path d="M500.81,596.35h-81.59v-8.7c0-4.8,3.89-8.7,8.7-8.7h81.59v8.7C509.51,592.45,505.61,596.35,500.81,596.35z"/>
			</g>
			<path d="M458.72,553.35l-39.5,74.29h25.87c4.29,0,8.23-2.37,10.24-6.15l36.23-68.14H458.72z"/>
			<path d="M448.72,557.77l3.46-19.61h-22.14c-4.22,0-7.83,3.03-8.57,7.19l-3.46,19.61h22.14
				C444.38,564.96,447.99,561.93,448.72,557.77z"/>
			<path d="M456.94,587.65l17.99,33.84c2.01,3.79,5.95,6.15,10.24,6.15h25.87l-21.26-39.99H456.94z"/>
		</g>
		<g>
			<path d="M660.91,596.3v8.7c0,4.8,3.89,8.7,8.7,8.7h21.51c2.4,0,4.35,1.95,4.35,4.35v12.07h-40.04l0-25.12c0-4.8-3.89-8.7-8.7-8.7
				h-18.12l0,121.12h15.22c6.4,0,11.6-5.19,11.6-11.6l0-24.49h40.04v14.34c0,2.4-1.95,4.35-4.35,4.35h-7.17c-4.8,0-8.7,3.89-8.7,8.7
				v8.7l26.74,0c11.21,0,20.29-9.09,20.29-20.29l0-80.53c0-11.21-9.09-20.29-20.29-20.29H660.91z M655.43,663.93v-16.42h40.04
				l0,16.42H655.43z"/>
			<path d="M713.8,549.3h-30.85l6.67,18.32c0.86,2.36-0.89,4.86-3.41,4.86h-22.02c-2.52,0-4.27-2.5-3.41-4.86l10.72-29.46h-30.85
				l-13.16,36.16c-2.75,7.56,2.85,15.56,10.9,15.56h73.62c8.05,0,13.65-8,10.9-15.56L713.8,549.3z"/>
			<g>
				<path d="M806.99,554.86v-10.37l-47.07,8.3v-14.71h-26.82l0,54.01c0,11.21,9.09,20.29,20.29,20.29h53.59v-8.7
					c0-4.8-3.89-8.7-8.7-8.7h-34.02c-2.4,0-4.35-1.95-4.35-4.35v-20.19l39.88-7.03C803.96,562.69,806.99,559.08,806.99,554.86z"/>
				<path d="M759.92,621.66h-26.82l0,75.46c0,11.21,9.09,20.29,20.29,20.29l53.59,0v-8.7c0-4.8-3.89-8.7-8.7-8.7h-34.02
					c-2.4,0-4.35-1.95-4.35-4.35v-41.64L799.8,647c4.16-0.73,7.19-4.34,7.19-8.57v-10.37l-47.07,8.3V621.66z"/>
			</g>
		</g>
		<g>
			<g>
				<path d="M288.25,561.18H223.1v-17.4h73.84v8.7C296.95,557.28,293.05,561.18,288.25,561.18z"/>
			</g>
			<g>
				<path d="M384.18,564.3h-81.95v-8.7c0-4.8,3.89-8.7,8.7-8.7h81.95v8.7C392.88,560.4,388.99,564.3,384.18,564.3z"/>
			</g>
			<g>
				<path d="M360.51,546.86l0,4.27h-26.82l0-12.97h18.12C356.61,538.16,360.51,542.06,360.51,546.86z"/>
			</g>
			<g>
				<g>
					<path d="M291.67,642.28h-87.93v-8.7c0-4.8,3.89-8.7,8.7-8.7h87.93v8.7C300.37,638.39,296.47,642.28,291.67,642.28z"/>
				</g>
				<g>
					<path d="M291.67,695.33h-17.51v-17.4h26.21v8.7C300.37,691.44,296.47,695.33,291.67,695.33z"/>
				</g>
				<path d="M241.99,571.84v8.7c0,4.8,3.89,8.7,8.7,8.7h12.55c2.4,0,4.35,1.95,4.35,4.35l0,84.35h-26.73c-2.4,0-4.35-1.95-4.35-4.35
					l0-93.05c0-4.8-3.89-8.7-8.7-8.7H209.7l0,103.2c0,11.21,9.09,20.29,20.29,20.29h64.42l0-103.2c0-11.21-9.09-20.29-20.29-20.29
					H241.99z"/>
			</g>
			<g>
				<path d="M361.09,623.17l0,73.95c0,11.21-9.09,20.29-20.29,20.29h-5.07l0-85.55c0-4.8,3.89-8.7,8.7-8.7H361.09z"/>
			</g>
			<path d="M395.08,599.98l-9.11-25.02h-30.85l6.67,18.32c0.86,2.36-0.89,4.86-3.41,4.86h-22.8c-2.52,0-4.27-2.5-3.41-4.86
				l12.79-35.15h-30.85l-15.23,41.85c-2.75,7.56,2.85,15.56,10.9,15.56h74.4C392.24,615.54,397.84,607.54,395.08,599.98z"/>
			<path d="M209.84,545.35L205.67,569h22.14c4.22,0,7.83-3.03,8.57-7.19l4.17-23.65H218.4
				C214.18,538.16,210.57,541.19,209.84,545.35z"/>
			<polygon points="241.52,594.49 245.01,619.16 262.58,619.16 259.09,594.49 			"/>
			<polygon points="241.52,647.9 245.01,672.58 262.58,672.58 259.09,647.9 			"/>
			<path d="M267.59,689.07v6.6c0,2.4-1.95,4.35-4.35,4.35h-7.17c-4.8,0-8.7,3.89-8.7,8.7v8.7h26.74c11.21,0,20.3-9.09,20.3-20.29
				v-8.05H267.59z"/>
			<path d="M395.29,698.61l0.01-0.01c-2.3-1.71-3.75-4.43-3.75-7.42v-68h-16.67c-4.8,0-8.7,3.89-8.7,8.7v60.18
				c0,14.01,11.36,25.37,25.37,25.37v0h6.57v-13.47C398.11,701.47,397.29,700.07,395.29,698.61z"/>
			<path d="M301.64,698.61l-0.01-0.01c2.3-1.71,3.75-4.43,3.75-7.42v-59.31c0-4.8,3.89-8.7,8.7-8.7h16.67v68.88
				c0,14.01-11.36,25.37-25.37,25.37v0h-6.57v-13.47C298.82,701.47,299.64,700.07,301.64,698.61z"/>
		</g>
	</g>
</g>
</svg>
