<?xml version="1.0" encoding="utf-8"?>
<!-- Generator: Adobe Illustrator 26.5.0, SVG Export Plug-In . SVG Version: 6.00 Build 0)  -->
<svg version="1.1" id="图层_1" xmlns="http://www.w3.org/2000/svg" xmlns:xlink="http://www.w3.org/1999/xlink" x="0px" y="0px"
	 viewBox="0 0 1375.4 418.44" style="enable-background:new 0 0 1375.4 418.44;" xml:space="preserve">
<style type="text/css">
	.st0{fill:#060307;}
	.st1{fill:url(#SVGID_1_);}
	.st2{fill:url(#SVGID_00000026869576736607078560000010973204441197453206_);}
	.st3{clip-path:url(#SVGID_00000097498607427299016870000003568794518770780323_);}
	.st4{clip-path:url(#SVGID_00000096765643024272149910000001507409760909287561_);}
	.st5{fill:url(#SVGID_00000051357352830813815250000006657792137641946303_);}
	.st6{fill:url(#SVGID_00000147182934467821808020000011676978221926302883_);}
	.st7{clip-path:url(#SVGID_00000129201254974504326280000014137515427473561531_);}
	.st8{clip-path:url(#SVGID_00000168106011109400710210000006276499390998542472_);}
	.st9{fill:url(#SVGID_00000040553174620470887490000002321777018575759764_);}
	.st10{fill:url(#SVGID_00000088827683674403742690000007483939505386308532_);}
	.st11{clip-path:url(#SVGID_00000061438799746365968130000003427339869437131153_);}
	.st12{clip-path:url(#SVGID_00000176023777235746793730000009238694515710951070_);}
	.st13{fill:url(#SVGID_00000127736499995187686050000013654300565022049198_);}
	.st14{fill:url(#SVGID_00000096059514645255822290000013165559102219422343_);}
	.st15{clip-path:url(#SVGID_00000038386219703677350730000005595999774367322558_);}
	.st16{clip-path:url(#SVGID_00000074400333259666718640000012639828150129638786_);}
	.st17{fill:#FFFFFF;}
	.st18{fill:url(#SVGID_00000072245280064955863630000004202333614321396909_);}
	.st19{fill:url(#SVGID_00000170975489916012051070000007980538391305014432_);}
	.st20{clip-path:url(#SVGID_00000116929280559687337790000010541709786991330220_);}
	.st21{clip-path:url(#SVGID_00000003819758416119448480000006574386387484579721_);}
</style>
<g>
	<path class="st0" d="M436.63,154.1c-10.46-18.12-25.75-32.58-43.69-42.14c0.3-19.59-4.59-39.24-14.67-56.71l-0.12-0.21
		c-19.56-33.87-56-54.96-95.12-55.04c-0.01,0-0.01,0-0.02,0h-0.19H167.27c-39.24,0-75.8,21.11-95.42,55.09l-57.13,98.95
		c-19.62,33.98-19.62,76.2,0,110.19c10.46,18.12,25.75,32.58,43.69,42.14c-0.31,19.63,4.57,39.33,14.68,56.85l0.11,0.19
		c19.56,33.87,56.01,54.97,95.12,55.04c0.07,0,0.14,0,0.22,0c1.56,0,3.11-0.05,4.65-0.11h110.89c39.24,0,75.8-21.11,95.42-55.09
		l57.13-98.95C456.25,230.3,456.25,188.08,436.63,154.1z M284.07,395.86h-48.81c11.42-8.7,21.21-19.65,28.59-32.44l85.83-148.6
		l28.57-49.46c5.31-9.2,9.17-19.01,11.61-29.09c11.05,7.36,20.47,17.24,27.3,29.08c15.62,27.05,15.62,60.66,0,87.71L360.04,352
		C344.42,379.05,315.31,395.86,284.07,395.86z M92.54,351.96c-6.55-11.35-10.34-23.86-11.39-36.54c-0.23-2.75-0.33-5.51-0.29-8.27
		c7.62,7.34,17.63,11.69,28.54,12.17c0.68,0.03,1.36,0.07,2.04,0.07h63.58l50.64-87.71l16.2,28.06l2.61,4.52
		c1.25,2.16,2.67,4.17,4.21,6.05c2.47,3.02,5.3,5.66,8.4,7.89c7.24,5.19,15.99,8.1,25.34,8.17l-38.01,65.82
		c-12.05,20.86-32.12,35.6-55,41.25c-4.69,1.16-9.5,1.93-14.38,2.3c-2.15,0.16-4.31,0.25-6.49,0.25c-0.06,0-0.12,0-0.17,0
		c-2.13,0-4.26-0.09-6.37-0.25c-28.67-2.16-54.83-18.44-69.34-43.57L92.54,351.96z M216.23,22.47
		c-11.49,8.71-21.33,19.71-28.74,32.55l-56.81,98.37c-0.15,0.25-0.31,0.49-0.46,0.74l-57.09,98.88c-0.09,0.16-0.17,0.32-0.26,0.48
		c-5.18,9.05-8.96,18.69-11.36,28.59c-11.06-7.37-20.49-17.24-27.32-29.09c-15.62-27.05-15.62-60.66,0-87.71l57.13-98.95
		c15.62-27.05,44.73-43.86,75.96-43.86H216.23z M358.8,66.48c6.53,11.32,10.32,23.78,11.38,36.43c0.23,2.78,0.33,5.57,0.3,8.36
		c-7.89-7.62-18.35-12.02-29.72-12.24c-0.3-0.01-0.6-0.03-0.9-0.03h-63.58l-50.64,87.71l-16.2-28.06l-2.61-4.53
		c-1.25-2.16-2.67-4.17-4.21-6.05c-2.47-3.02-5.29-5.66-8.4-7.89c-7.23-5.18-15.95-8.08-25.27-8.17l37.98-65.76
		c12.04-20.84,32.07-35.57,54.92-41.23c4.69-1.16,9.5-1.94,14.39-2.31c2.17-0.16,4.36-0.26,6.56-0.26c0.05,0,0.11,0,0.17,0
		c2.11,0,4.22,0.09,6.31,0.25c28.7,2.15,54.89,18.43,69.39,43.56L358.8,66.48z"/>
	<g>
		<g>
			<g>
				<path class="st0" d="M659.17,387.48h-12.61c-4.46,0-8.61-2.27-11.03-6.01l-46.06-71.52v64.42c0,7.24-5.87,13.12-13.12,13.12
					h-7.95V269h12.61c4.46,0,8.61,2.27,11.03,6.01l46.06,71.52v-64.42c0-7.24,5.87-13.12,13.12-13.12h7.95V387.48z"/>
			</g>
			<g>
				<path class="st0" d="M932.73,388.64c-22.31,0.38-40.57-18.26-40.57-40.58v-51.02h7.95c7.24,0,13.12,5.87,13.12,13.12v38.15
					c0,10.18,7.9,18.87,18.08,19.26c10.7,0.41,19.53-8.18,19.53-18.79v-38.61c0-7.24,5.87-13.12,13.12-13.12h7.95v51.73
					C971.91,370.53,954.4,388.27,932.73,388.64z"/>
			</g>
			<g>
				<g>
					<path class="st0" d="M1033.29,387.48c-24.02,0-43.57-19.54-43.57-43.57v-61.8c0-7.24,5.87-13.12,13.12-13.12h7.95v74.92
						c0,9.48,5.89,17.6,14.2,20.91c5,1.99,8.3,6.81,8.3,12.19V387.48z"/>
				</g>
				<g>
					<path class="st0" d="M1020.17,320.25h-19.92v-21.07h33.03v7.95C1033.29,314.37,1027.42,320.25,1020.17,320.25z"/>
				</g>
			</g>
			<g>
				<path class="st0" d="M1071.33,387.5h-7.95c-7.24,0-13.12-5.87-13.12-13.12v-30.01c0-26.09,21.23-47.32,47.32-47.32v10.2
					c0,5.58-3.55,10.5-8.8,12.38c-10.16,3.63-17.45,13.35-17.45,24.74V387.5z"/>
			</g>
			<g>
				<g>
					<path class="st0" d="M804.91,387.48h-7.95c-7.24,0-13.12-5.87-13.12-13.12V269h7.95c7.24,0,13.12,5.87,13.12,13.12V387.48z"/>
				</g>
				<g>
					<path class="st0" d="M829.64,388.64c-25.26,0-45.8-20.55-45.8-45.8c0-25.26,20.55-45.8,45.8-45.8c25.26,0,45.8,20.55,45.8,45.8
						C875.44,368.1,854.9,388.64,829.64,388.64z M829.64,318.11c-13.64,0-24.73,11.1-24.73,24.73c0,13.64,11.1,24.73,24.73,24.73
						c13.64,0,24.73-11.1,24.73-24.73C854.37,329.21,843.28,318.11,829.64,318.11z"/>
				</g>
			</g>
			<g>
				<g>
					<path class="st0" d="M1196.06,387.48h-7.95c-7.24,0-13.12-5.87-13.12-13.12v-31.52h21.07V387.48z"/>
				</g>
				<g>
					<path class="st0" d="M1150.26,388.64c-25.26,0-45.8-20.55-45.8-45.8c0-25.26,20.55-45.8,45.8-45.8s45.8,20.55,45.8,45.8
						C1196.06,368.1,1175.52,388.64,1150.26,388.64z M1150.26,318.11c-13.64,0-24.73,11.1-24.73,24.73
						c0,13.64,11.1,24.73,24.73,24.73c13.64,0,24.73-11.1,24.73-24.73C1175,329.21,1163.9,318.11,1150.26,318.11z"/>
				</g>
			</g>
			<g>
				<g>
					<rect x="687.1" y="330.33" class="st0" width="76.95" height="21.07"/>
				</g>
				<path class="st0" d="M738.45,361.59c-4.96,4.27-11.62,6.61-18.81,5.84c-11.26-1.2-20.4-10.13-21.83-21.36
					c-2.06-16.16,11.61-29.82,27.77-27.75c11.08,1.42,19.94,10.34,21.3,21.43c0.5,4.12-0.02,8.08-1.34,11.65h21.78
					c0.53-2.77,0.81-5.63,0.81-8.56c0-26.42-22.48-47.68-49.32-45.67c-22.39,1.68-40.47,19.76-42.15,42.15
					c-2.01,26.84,19.25,49.32,45.67,49.32c17.2,0,32.2-9.53,40.03-23.59l-9.01-5C748.56,357.39,742.61,358.01,738.45,361.59z"/>
			</g>
		</g>
	</g>
	<g>
		<g>
			<g>
				<path d="M735.91,52.1H578.09v-8.7c0-4.8,3.89-8.7,8.7-8.7h157.82v8.7C744.61,48.21,740.71,52.1,735.91,52.1z"/>
			</g>
			<g>
				<path d="M745.59,104.26H568.41v-8.7c0-4.8,3.89-8.7,8.7-8.7h177.19v8.7C754.29,100.37,750.4,104.26,745.59,104.26z"/>
			</g>
			<path d="M748.02,187.06l-19.91-54.69h-30.85l17.11,47.02c1.03,2.84-1.07,5.84-4.09,5.84h-97.88c-3.02,0-5.12-3-4.09-5.84
				l28.84-79.25h-30.85l-31.64,86.92c-2.75,7.56,2.85,15.56,10.9,15.56h151.54C745.17,202.63,750.77,194.63,748.02,187.06z"/>
		</g>
		<g>
			<path d="M1115.78,33.56v8.7c0,4.8,3.89,8.7,8.7,8.7h12.55c2.4,0,4.35,1.95,4.35,4.35v42.4c0,2.4-1.95,4.35-4.35,4.35h-22.38
				c-2.4,0-4.35-1.95-4.35-4.35V42.25c0-4.8-3.89-8.7-8.7-8.7h-18.12l0,65.59c0,11.21,9.09,20.29,20.29,20.29h44.12
				c11.21,0,20.29-9.09,20.29-20.29V53.85c0-11.21-9.09-20.29-20.29-20.29H1115.78z"/>
			<g>
				<g>
					<path d="M1117.14,175.4h-90.74v-8.7c0-4.8,3.89-8.7,8.7-8.7h90.74v8.7C1125.84,171.51,1121.95,175.4,1117.14,175.4z"/>
				</g>
				<path d="M1022,124.19v8.7c0,4.8,3.89,8.7,8.7,8.7h103.43c2.4,0,4.35,1.95,4.35,4.35v41.54c0,2.4-1.95,4.35-4.35,4.35h-113.26
					c-2.4,0-4.35-1.95-4.35-4.35v-54.59c0-4.8-3.89-8.7-8.7-8.7H989.7l0,64.74c0,11.21,9.09,20.29,20.29,20.29h135
					c11.21,0,20.29-9.09,20.29-20.29l0-44.44c0-11.21-9.09-20.29-20.29-20.29H1022z"/>
			</g>
			<g>
				<path d="M1067.8,52.98h-64.65v-17.4h73.34v8.7C1076.49,49.09,1072.6,52.98,1067.8,52.98z"/>
			</g>
			<g>
				<path d="M1069.21,88.15h-81.59v-8.7c0-4.8,3.89-8.7,8.7-8.7h81.59v8.7C1077.91,84.25,1074.02,88.15,1069.21,88.15z"/>
			</g>
			<path d="M1027.12,45.15l-39.5,74.29h25.87c4.29,0,8.23-2.37,10.24-6.15l36.23-68.14H1027.12z"/>
			<path d="M1017.13,49.57l3.46-19.61h-22.14c-4.22,0-7.83,3.03-8.57,7.19l-3.46,19.61h22.14
				C1012.78,56.76,1016.4,53.73,1017.13,49.57z"/>
			<path d="M1025.35,79.45l17.99,33.84c2.01,3.79,5.95,6.15,10.24,6.15h25.87l-21.26-39.99H1025.35z"/>
		</g>
		<g>
			<path d="M1229.31,88.1v8.7c0,4.8,3.89,8.7,8.7,8.7h21.51c2.4,0,4.35,1.95,4.35,4.35v12.07h-40.04V96.8c0-4.8-3.89-8.7-8.7-8.7
				h-18.12l0,121.12h15.22c6.4,0,11.6-5.19,11.6-11.6v-24.49h40.04v14.34c0,2.4-1.95,4.35-4.35,4.35h-7.17c-4.8,0-8.7,3.89-8.7,8.7
				v8.7l26.74,0c11.21,0,20.3-9.09,20.3-20.29v-80.53c0-11.21-9.09-20.29-20.29-20.29H1229.31z M1223.83,155.73v-16.42h40.04
				l0,16.42H1223.83z"/>
			<path d="M1282.2,41.1h-30.85l6.67,18.32c0.86,2.36-0.89,4.86-3.41,4.86h-22.02c-2.52,0-4.27-2.5-3.41-4.86l10.72-29.46h-30.85
				l-13.16,36.16c-2.75,7.56,2.85,15.56,10.9,15.56h73.62c8.05,0,13.65-8,10.9-15.56L1282.2,41.1z"/>
			<g>
				<path d="M1375.4,46.66V36.3l-47.07,8.3V29.89h-26.82V83.9c0,11.21,9.09,20.29,20.29,20.29h53.59v-8.7c0-4.8-3.89-8.7-8.7-8.7
					h-34.02c-2.4,0-4.35-1.95-4.35-4.35V62.26l39.88-7.03C1372.36,54.49,1375.4,50.88,1375.4,46.66z"/>
				<path d="M1328.33,113.46h-26.82v75.46c0,11.21,9.09,20.29,20.29,20.29l53.59,0v-8.7c0-4.8-3.89-8.7-8.7-8.7h-34.02
					c-2.4,0-4.35-1.95-4.35-4.35v-41.64l39.88-7.03c4.16-0.73,7.19-4.34,7.19-8.57v-10.37l-47.07,8.3V113.46z"/>
			</g>
		</g>
		<g>
			<g>
				<path d="M856.65,52.98h-65.14v-17.4h73.84v8.7C865.35,49.08,861.46,52.98,856.65,52.98z"/>
			</g>
			<g>
				<path d="M952.59,56.1h-81.95v-8.7c0-4.8,3.89-8.7,8.7-8.7h81.95v8.7C961.28,52.2,957.39,56.1,952.59,56.1z"/>
			</g>
			<g>
				<path d="M928.91,38.66v4.27H902.1l0-12.97h18.12C925.02,29.96,928.91,33.86,928.91,38.66z"/>
			</g>
			<g>
				<g>
					<path d="M860.08,134.08h-87.93v-8.7c0-4.8,3.89-8.7,8.7-8.7h87.93v8.7C868.77,130.19,864.88,134.08,860.08,134.08z"/>
				</g>
				<g>
					<path d="M860.08,187.13h-17.51v-17.4h26.21v8.7C868.77,183.24,864.88,187.13,860.08,187.13z"/>
				</g>
				<path d="M810.4,63.64v8.7c0,4.8,3.89,8.7,8.7,8.7h12.55c2.4,0,4.35,1.95,4.35,4.35l0,84.35h-26.73c-2.4,0-4.35-1.95-4.35-4.35
					l0-93.05c0-4.8-3.89-8.7-8.7-8.7H778.1l0,103.2c0,11.21,9.09,20.29,20.29,20.29h64.42l0-103.2c0-11.21-9.09-20.29-20.29-20.29
					H810.4z"/>
			</g>
			<g>
				<path d="M929.5,114.97v73.95c0,11.21-9.09,20.29-20.29,20.29h-5.07l0-85.55c0-4.8,3.89-8.7,8.7-8.7H929.5z"/>
			</g>
			<path d="M963.49,91.78l-9.11-25.02h-30.85l6.67,18.32c0.86,2.36-0.89,4.86-3.41,4.86h-22.8c-2.52,0-4.27-2.5-3.41-4.86
				l12.79-35.15h-30.85L867.3,91.78c-2.75,7.56,2.85,15.56,10.9,15.56h74.4C960.64,107.34,966.24,99.34,963.49,91.78z"/>
			<path d="M778.24,37.15l-4.17,23.65h22.14c4.22,0,7.83-3.03,8.57-7.19l4.17-23.65h-22.14C782.59,29.96,778.97,32.99,778.24,37.15z
				"/>
			<polygon points="809.93,86.29 813.42,110.96 830.99,110.96 827.49,86.29 			"/>
			<polygon points="809.93,139.7 813.42,164.38 830.99,164.38 827.49,139.7 			"/>
			<path d="M836,180.87v6.6c0,2.4-1.95,4.35-4.35,4.35h-7.17c-4.8,0-8.7,3.89-8.7,8.7v8.7h26.74c11.21,0,20.3-9.09,20.3-20.29v-8.05
				H836z"/>
			<path d="M963.69,190.41l0.01-0.01c-2.3-1.71-3.75-4.43-3.75-7.42v-68h-16.67c-4.8,0-8.7,3.89-8.7,8.7v60.18
				c0,14.01,11.36,25.37,25.37,25.37v0h6.57v-13.47C966.52,193.27,965.7,191.87,963.69,190.41z"/>
			<path d="M870.05,190.41l-0.01-0.01c2.3-1.71,3.75-4.43,3.75-7.42v-59.31c0-4.8,3.89-8.7,8.7-8.7h16.67v68.88
				c0,14.01-11.36,25.37-25.37,25.37v0h-6.57v-13.47C867.23,193.27,868.04,191.87,870.05,190.41z"/>
		</g>
	</g>
</g>
</svg>
