<?xml version="1.0" encoding="utf-8"?>
<!-- Generator: Adobe Illustrator 26.5.0, SVG Export Plug-In . SVG Version: 6.00 Build 0)  -->
<svg version="1.1" id="图层_1" xmlns="http://www.w3.org/2000/svg" xmlns:xlink="http://www.w3.org/1999/xlink" x="0px" y="0px"
	 viewBox="0 0 986.72 188.1" style="enable-background:new 0 0 986.72 188.1;" xml:space="preserve">
<style type="text/css">
	.st0{fill:#060307;}
	.st1{fill:url(#SVGID_1_);}
	.st2{fill:url(#SVGID_00000069356466381191110050000005330262083116775567_);}
	.st3{clip-path:url(#SVGID_00000109015724705466042880000013707598369863099319_);}
	.st4{clip-path:url(#SVGID_00000096022569491647891470000012943033287543869595_);}
	.st5{fill:url(#SVGID_00000056389616846729362360000006380063274040806785_);}
	.st6{fill:url(#SVGID_00000073715197361793902300000009777626235651710852_);}
	.st7{clip-path:url(#SVGID_00000040535230494426961910000002712489499577234609_);}
	.st8{clip-path:url(#SVGID_00000177442300605826149460000003379527173304112814_);}
	.st9{fill:url(#SVGID_00000076584450015824421420000007975736902882237116_);}
	.st10{fill:url(#SVGID_00000148629025682529347850000004454321240909718959_);}
	.st11{clip-path:url(#SVGID_00000147915339666359021730000008848038285186421179_);}
	.st12{clip-path:url(#SVGID_00000161606117297643862660000011633537177592042680_);}
	.st13{fill:url(#SVGID_00000079476962922469118380000005068259094162428821_);}
	.st14{fill:url(#SVGID_00000053510996334547182180000010503652113196986810_);}
	.st15{clip-path:url(#SVGID_00000134245485757810850510000013038482490420968075_);}
	.st16{clip-path:url(#SVGID_00000061462544435748392460000014403559620437905332_);}
	.st17{fill:#FFFFFF;}
	.st18{fill:url(#SVGID_00000074443386640105325540000006822813412418633118_);}
	.st19{fill:url(#SVGID_00000155847409643264723430000018099619581039227018_);}
	.st20{clip-path:url(#SVGID_00000181804057919867106050000010131960446727891600_);}
	.st21{clip-path:url(#SVGID_00000111880078961635002470000007263992680926282681_);}
</style>
<g>
	<g>
		<g>
			<g>
				<path class="st0" d="M142.68,186.26h-19.82c-7.01,0-13.54-3.56-17.34-9.46L33.12,64.37v101.27c0,11.39-9.23,20.62-20.62,20.62H0
					V0h19.82c7.01,0,13.54,3.56,17.34,9.46l72.41,112.44V20.62C109.56,9.23,118.79,0,130.18,0h12.5V186.26z"/>
			</g>
			<g>
				<path class="st0" d="M572.74,188.09c-35.07,0.6-63.78-28.71-63.78-63.79V44.09h12.5c11.39,0,20.62,9.23,20.62,20.62v59.97
					c0,16.01,12.42,29.67,28.42,30.27c16.82,0.64,30.71-12.86,30.71-29.54v-60.7c0-11.39,9.23-20.62,20.62-20.62h12.5v81.32
					C634.34,159.61,606.81,187.5,572.74,188.09z"/>
			</g>
			<g>
				<g>
					<path class="st0" d="M730.83,186.26c-37.77,0-68.49-30.72-68.49-68.49V20.62C662.34,9.23,671.57,0,682.96,0h12.5v117.77
						c0,14.9,9.26,27.67,22.32,32.88c7.86,3.13,13.05,10.7,13.05,19.17V186.26z"/>
				</g>
				<g>
					<path class="st0" d="M710.21,80.57H678.9V47.45h51.93v12.5C730.83,71.34,721.6,80.57,710.21,80.57z"/>
				</g>
			</g>
			<g>
				<path class="st0" d="M790.63,186.29h-12.5c-11.39,0-20.62-9.23-20.62-20.62v-47.18c0-41.02,33.37-74.4,74.4-74.4v16.04
					c0,8.77-5.58,16.51-13.84,19.46c-15.97,5.7-27.43,20.98-27.43,38.89V186.29z"/>
			</g>
			<g>
				<g>
					<path class="st0" d="M371.8,186.26h-12.5c-11.39,0-20.62-9.23-20.62-20.62V0h12.5c11.39,0,20.62,9.23,20.62,20.62V186.26z"/>
				</g>
				<g>
					<path class="st0" d="M410.68,188.1c-39.7,0-72-32.3-72-72s32.3-72,72-72s72,32.3,72,72S450.38,188.1,410.68,188.1z
						 M410.68,77.21c-21.44,0-38.88,17.44-38.88,38.88c0,21.44,17.44,38.88,38.88,38.88c21.44,0,38.88-17.44,38.88-38.88
						C449.56,94.65,432.12,77.21,410.68,77.21z"/>
				</g>
			</g>
			<g>
				<g>
					<path class="st0" d="M986.72,186.26h-12.5c-11.39,0-20.62-9.23-20.62-20.62v-49.55h33.12V186.26z"/>
				</g>
				<g>
					<path class="st0" d="M914.72,188.1c-39.7,0-72-32.3-72-72s32.3-72,72-72c39.7,0,72,32.3,72,72S954.42,188.1,914.72,188.1z
						 M914.72,77.21c-21.44,0-38.88,17.44-38.88,38.88c0,21.44,17.44,38.88,38.88,38.88c21.44,0,38.88-17.44,38.88-38.88
						C953.6,94.65,936.16,77.21,914.72,77.21z"/>
				</g>
			</g>
			<g>
				<g>
					<rect x="186.6" y="96.43" class="st0" width="120.97" height="33.12"/>
				</g>
				<path class="st0" d="M267.32,145.57c-7.79,6.71-18.26,10.39-29.56,9.18c-17.7-1.88-32.08-15.93-34.32-33.58
					c-3.23-25.41,18.24-46.88,43.66-43.63c17.42,2.23,31.35,16.26,33.49,33.7c0.79,6.48-0.03,12.7-2.1,18.31h34.24
					c0.83-4.36,1.28-8.85,1.28-13.45c0-41.53-35.34-74.96-77.53-71.79c-35.2,2.64-63.62,31.06-66.27,66.26
					c-3.17,42.19,30.26,77.53,71.8,77.53c27.04,0,50.63-14.99,62.94-37.08l-14.16-7.86C283.22,138.97,273.87,139.93,267.32,145.57z"
					/>
			</g>
		</g>
	</g>
</g>
</svg>
