<?xml version="1.0" encoding="utf-8"?>
<!-- Generator: Adobe Illustrator 26.5.0, SVG Export Plug-In . SVG Version: 6.00 Build 0)  -->
<svg version="1.1" id="图层_1" xmlns="http://www.w3.org/2000/svg" xmlns:xlink="http://www.w3.org/1999/xlink" x="0px" y="0px"
	 viewBox="0 0 574.76 547.61" style="enable-background:new 0 0 574.76 547.61;" xml:space="preserve">
<style type="text/css">
	.st0{fill:#060307;}
	.st1{fill:url(#SVGID_1_);}
	.st2{fill:url(#SVGID_00000085956863406870741910000006543463523446194060_);}
	.st3{clip-path:url(#SVGID_00000106831538301769665430000007035901143770989752_);}
	.st4{clip-path:url(#SVGID_00000057869368066040915240000016376889911785296282_);}
	.st5{fill:url(#SVGID_00000163067283194266317830000013742664584588570290_);}
	.st6{fill:url(#SVGID_00000146461796976958316290000011957844523262517424_);}
	.st7{clip-path:url(#SVGID_00000117652272766031998870000013662247189265113262_);}
	.st8{clip-path:url(#SVGID_00000119096593704344667890000003621299215970415264_);}
	.st9{fill:url(#SVGID_00000163056705198339965930000007576323945221400490_);}
	.st10{fill:url(#SVGID_00000163074462263851722670000001983526702709784235_);}
	.st11{clip-path:url(#SVGID_00000098192245504955653240000006081723274479994515_);}
	.st12{clip-path:url(#SVGID_00000106116096568896384700000002287516665140635324_);}
	.st13{fill:url(#SVGID_00000034802112502396904480000004616750452351797182_);}
	.st14{fill:url(#SVGID_00000075159400650629305290000013396681009620932233_);}
	.st15{clip-path:url(#SVGID_00000164493225140905536680000003740384726303050382_);}
	.st16{clip-path:url(#SVGID_00000001666214260941287780000005102639964634812563_);}
	.st17{fill:#FFFFFF;}
	.st18{fill:url(#SVGID_00000122714519421236000830000005445454738311629753_);}
	.st19{fill:url(#SVGID_00000124154839781308325880000014505292935596795786_);}
	.st20{clip-path:url(#SVGID_00000140002768516766885170000006733921980461977513_);}
	.st21{clip-path:url(#SVGID_00000117634133977578949670000002989743325338582674_);}
</style>
<g>
	<g>
		<g>
			<g>
				<path class="st0" d="M83.11,546.54H71.57c-4.08,0-7.89-2.07-10.1-5.51l-42.18-65.49v58.99c0,6.63-5.38,12.01-12.01,12.01H0
					v-108.5h11.54c4.08,0,7.89,2.07,10.1,5.51l42.18,65.49v-58.99c0-6.63,5.38-12.01,12.01-12.01h7.28V546.54z"/>
			</g>
			<g>
				<path class="st0" d="M333.62,547.6c-20.43,0.35-37.15-16.72-37.15-37.16v-46.72h7.28c6.63,0,12.01,5.38,12.01,12.01v34.93
					c0,9.33,7.24,17.28,16.56,17.63c9.8,0.37,17.89-7.49,17.89-17.21v-35.36c0-6.63,5.38-12.01,12.01-12.01h7.28v47.37
					C369.5,531.02,353.46,547.26,333.62,547.6z"/>
			</g>
			<g>
				<g>
					<path class="st0" d="M425.7,546.54c-22,0-39.89-17.9-39.89-39.89v-56.59c0-6.63,5.38-12.01,12.01-12.01h7.28v68.6
						c0,8.68,5.39,16.12,13,19.15c4.58,1.82,7.6,6.24,7.6,11.17V546.54z"/>
				</g>
				<g>
					<path class="st0" d="M413.69,484.97h-18.24v-19.29h30.25v7.28C425.7,479.6,420.33,484.97,413.69,484.97z"/>
				</g>
			</g>
			<g>
				<path class="st0" d="M460.54,546.55h-7.28c-6.63,0-12.01-5.38-12.01-12.01v-27.48c0-23.9,19.44-43.33,43.33-43.33v9.34
					c0,5.11-3.25,9.62-8.06,11.34c-9.3,3.32-15.98,12.22-15.98,22.65V546.55z"/>
			</g>
			<g>
				<g>
					<path class="st0" d="M216.57,546.54h-7.28c-6.63,0-12.01-5.38-12.01-12.01v-96.49h7.28c6.63,0,12.01,5.38,12.01,12.01V546.54z"
						/>
				</g>
				<g>
					<path class="st0" d="M239.22,547.61c-23.13,0-41.94-18.82-41.94-41.94s18.81-41.94,41.94-41.94s41.94,18.81,41.94,41.94
						S262.35,547.61,239.22,547.61z M239.22,483.02c-12.49,0-22.65,10.16-22.65,22.65c0,12.49,10.16,22.65,22.65,22.65
						c12.49,0,22.65-10.16,22.65-22.65C261.87,493.18,251.71,483.02,239.22,483.02z"/>
				</g>
			</g>
			<g>
				<g>
					<path class="st0" d="M574.76,546.54h-7.28c-6.63,0-12.01-5.38-12.01-12.01v-28.86h19.29V546.54z"/>
				</g>
				<g>
					<path class="st0" d="M532.82,547.61c-23.13,0-41.94-18.82-41.94-41.94s18.82-41.94,41.94-41.94s41.94,18.81,41.94,41.94
						S555.95,547.61,532.82,547.61z M532.82,483.02c-12.49,0-22.65,10.16-22.65,22.65c0,12.49,10.16,22.65,22.65,22.65
						c12.49,0,22.65-10.16,22.65-22.65C555.47,493.18,545.31,483.02,532.82,483.02z"/>
				</g>
			</g>
			<g>
				<g>
					<rect x="108.69" y="494.21" class="st0" width="70.46" height="19.29"/>
				</g>
				<path class="st0" d="M155.71,522.83c-4.54,3.91-10.64,6.05-17.22,5.35c-10.31-1.1-18.68-9.28-19.99-19.56
					c-1.88-14.8,10.63-27.31,25.43-25.41c10.15,1.3,18.26,9.47,19.5,19.63c0.46,3.78-0.02,7.4-1.23,10.67h19.95
					c0.48-2.54,0.75-5.16,0.75-7.84c0-24.19-20.59-43.66-45.16-41.82c-20.51,1.54-37.06,18.09-38.6,38.6
					c-1.84,24.57,17.63,45.16,41.82,45.16c15.75,0,29.49-8.73,36.66-21.6l-8.25-4.58C164.97,518.99,159.52,519.55,155.71,522.83z"/>
			</g>
		</g>
	</g>
	<path class="st0" d="M480.56,141.11c-9.58-16.6-23.58-29.84-40.01-38.58c0.27-17.94-4.2-35.93-13.44-51.93l-0.11-0.19
		C409.1,19.39,375.72,0.07,339.9,0c-0.01,0-0.01,0-0.02,0h-0.17H233.9c-35.93,0-69.42,19.33-87.38,50.45L94.2,141.06
		c-17.97,31.12-17.97,69.78,0,100.9c9.58,16.6,23.58,29.84,40.01,38.58c-0.29,17.97,4.18,36.01,13.44,52.05l0.1,0.17
		c17.91,31.02,51.29,50.33,87.1,50.4c0.07,0,0.13,0,0.2,0c1.43,0,2.84-0.04,4.26-0.1h101.54c35.93,0,69.42-19.33,87.38-50.45
		l52.31-90.61C498.52,210.89,498.52,172.23,480.56,141.11z M340.86,362.49h-44.7c10.46-7.96,19.42-18,26.18-29.71l78.6-136.08
		l26.16-45.29c4.87-8.42,8.4-17.41,10.63-26.64c10.12,6.74,18.74,15.79,25,26.62c14.3,24.77,14.3,55.55,0,80.32l-52.32,90.61
		C396.12,347.1,369.47,362.49,340.86,362.49z M165.47,322.29c-6-10.39-9.47-21.84-10.43-33.46c-0.21-2.52-0.3-5.05-0.27-7.57
		c6.97,6.72,16.14,10.7,26.13,11.15c0.62,0.03,1.24,0.06,1.87,0.06h58.22l46.37-80.32l14.84,25.7l2.39,4.14
		c1.14,1.98,2.44,3.82,3.85,5.54c2.26,2.77,4.85,5.18,7.69,7.22c6.63,4.75,14.64,7.41,23.2,7.48l-34.81,60.27
		c-11.03,19.1-29.41,32.6-50.36,37.77c-4.3,1.06-8.7,1.77-13.17,2.1c-1.97,0.15-3.95,0.23-5.94,0.23c-0.05,0-0.11,0-0.16,0
		c-1.95,0-3.9-0.09-5.83-0.23c-26.26-1.98-50.21-16.89-63.5-39.9L165.47,322.29z M278.73,20.58c-10.52,7.98-19.53,18.05-26.32,29.81
		l-52.03,90.08c-0.14,0.23-0.29,0.45-0.42,0.68l-52.28,90.55c-0.08,0.15-0.15,0.3-0.24,0.44c-4.74,8.29-8.21,17.11-10.4,26.18
		c-10.13-6.74-18.76-15.79-25.02-26.64c-14.3-24.77-14.3-55.55,0-80.32l52.31-90.61c14.3-24.77,40.96-40.16,69.56-40.16H278.73z
		 M409.29,60.88c5.98,10.36,9.45,21.78,10.42,33.36c0.21,2.55,0.31,5.1,0.28,7.66c-7.22-6.97-16.8-11.01-27.22-11.21
		c-0.27-0.01-0.55-0.03-0.82-0.03h-58.22l-46.37,80.32l-14.84-25.7l-2.39-4.15c-1.14-1.98-2.44-3.82-3.85-5.54
		c-2.26-2.77-4.85-5.19-7.69-7.22c-6.62-4.74-14.61-7.4-23.14-7.48l34.78-60.22c11.02-19.08,29.37-32.57,50.29-37.75
		c4.3-1.06,8.7-1.78,13.18-2.12c1.99-0.15,3.99-0.23,6.01-0.23c0.05,0,0.1,0,0.15,0c1.94,0,3.86,0.08,5.78,0.23
		c26.28,1.97,50.26,16.88,63.54,39.89L409.29,60.88z"/>
</g>
</svg>
