<?xml version="1.0" encoding="utf-8"?>
<!-- Generator: Adobe Illustrator 26.5.0, SVG Export Plug-In . SVG Version: 6.00 Build 0)  -->
<svg version="1.1" id="图层_1" xmlns="http://www.w3.org/2000/svg" xmlns:xlink="http://www.w3.org/1999/xlink" x="0px" y="0px"
	 viewBox="0 0 806.99 358.76" style="enable-background:new 0 0 806.99 358.76;" xml:space="preserve">
<style type="text/css">
	.st0{fill:#060307;}
	.st1{fill:url(#SVGID_1_);}
	.st2{fill:url(#SVGID_00000078734508234328597300000013859897960745666441_);}
	.st3{clip-path:url(#SVGID_00000038390571953394187040000011441008105188837013_);}
	.st4{clip-path:url(#SVGID_00000022557436400821440050000018353215970300266155_);}
	.st5{fill:url(#SVGID_00000178205902401036160040000015900708379089535116_);}
	.st6{fill:url(#SVGID_00000181058474528535071650000008965292388644864651_);}
	.st7{clip-path:url(#SVGID_00000071561471117901340130000003679452225581591228_);}
	.st8{clip-path:url(#SVGID_00000010288276522772589090000018313771439875569812_);}
	.st9{fill:url(#SVGID_00000182500315716404757460000016801186858972067229_);}
	.st10{fill:url(#SVGID_00000005233299207237084740000004500628474683355274_);}
	.st11{clip-path:url(#SVGID_00000103949342010214526630000003866836706633692553_);}
	.st12{clip-path:url(#SVGID_00000102511520038089706100000007097353725743013055_);}
	.st13{fill:url(#SVGID_00000139290425354490683240000017428077891842706844_);}
	.st14{fill:url(#SVGID_00000121982896604965720800000010248591751171052698_);}
	.st15{clip-path:url(#SVGID_00000043453714845344278110000007137104371652788413_);}
	.st16{clip-path:url(#SVGID_00000107557396739497394120000016778281493928339125_);}
	.st17{fill:#FFFFFF;}
	.st18{fill:url(#SVGID_00000114045023471959696090000011792804029138297991_);}
	.st19{fill:url(#SVGID_00000171715242409438497610000011823513171983154367_);}
	.st20{clip-path:url(#SVGID_00000006710130792172321390000006717068260704466819_);}
	.st21{clip-path:url(#SVGID_00000140706267281794999820000004268285070234988209_);}
</style>
<g>
	<g>
		<g>
			<g>
				<path class="st0" d="M90.76,357.59H78.15c-4.46,0-8.61-2.27-11.03-6.01l-46.06-71.52v64.42c0,7.24-5.87,13.12-13.12,13.12H0
					V239.11h12.61c4.46,0,8.61,2.27,11.03,6.01l46.06,71.52v-64.42c0-7.24,5.87-13.12,13.12-13.12h7.95V357.59z"/>
			</g>
			<g>
				<path class="st0" d="M364.32,358.75c-22.31,0.38-40.57-18.26-40.57-40.58v-51.02h7.95c7.24,0,13.12,5.87,13.12,13.12v38.15
					c0,10.18,7.9,18.87,18.08,19.26c10.7,0.41,19.53-8.18,19.53-18.79v-38.61c0-7.24,5.87-13.12,13.12-13.12h7.95v51.73
					C403.5,340.64,385.99,358.38,364.32,358.75z"/>
			</g>
			<g>
				<g>
					<path class="st0" d="M464.89,357.59c-24.02,0-43.57-19.54-43.57-43.57v-61.8c0-7.24,5.87-13.12,13.12-13.12h7.95v74.92
						c0,9.48,5.89,17.6,14.2,20.91c5,1.99,8.3,6.81,8.3,12.19V357.59z"/>
				</g>
				<g>
					<path class="st0" d="M451.77,290.36h-19.92v-21.07h33.03v7.95C464.89,284.49,459.01,290.36,451.77,290.36z"/>
				</g>
			</g>
			<g>
				<path class="st0" d="M502.92,357.61h-7.95c-7.24,0-13.12-5.87-13.12-13.12v-30.01c0-26.09,21.23-47.32,47.32-47.32v10.2
					c0,5.58-3.55,10.5-8.8,12.38c-10.16,3.63-17.45,13.35-17.45,24.74V357.61z"/>
			</g>
			<g>
				<g>
					<path class="st0" d="M236.5,357.59h-7.95c-7.24,0-13.12-5.87-13.12-13.12V239.11h7.95c7.24,0,13.12,5.87,13.12,13.12V357.59z"
						/>
				</g>
				<g>
					<path class="st0" d="M261.24,358.76c-25.26,0-45.8-20.55-45.8-45.8s20.55-45.8,45.8-45.8s45.8,20.55,45.8,45.8
						S286.49,358.76,261.24,358.76z M261.24,288.22c-13.64,0-24.73,11.1-24.73,24.73c0,13.64,11.1,24.73,24.73,24.73
						c13.64,0,24.73-11.1,24.73-24.73C285.97,299.32,274.87,288.22,261.24,288.22z"/>
				</g>
			</g>
			<g>
				<g>
					<path class="st0" d="M627.66,357.59h-7.95c-7.24,0-13.12-5.87-13.12-13.12v-31.52h21.07V357.59z"/>
				</g>
				<g>
					<path class="st0" d="M581.86,358.76c-25.26,0-45.8-20.55-45.8-45.8s20.55-45.8,45.8-45.8s45.8,20.55,45.8,45.8
						S607.11,358.76,581.86,358.76z M581.86,288.22c-13.64,0-24.73,11.1-24.73,24.73c0,13.64,11.1,24.73,24.73,24.73
						c13.64,0,24.73-11.1,24.73-24.73C606.59,299.32,595.5,288.22,581.86,288.22z"/>
				</g>
			</g>
			<g>
				<g>
					<rect x="118.7" y="300.44" class="st0" width="76.95" height="21.07"/>
				</g>
				<path class="st0" d="M170.05,331.7c-4.96,4.27-11.62,6.61-18.81,5.84c-11.26-1.2-20.4-10.13-21.83-21.36
					c-2.06-16.16,11.61-29.82,27.77-27.75c11.08,1.42,19.94,10.34,21.3,21.43c0.5,4.12-0.02,8.08-1.34,11.65h21.78
					c0.53-2.77,0.81-5.63,0.81-8.56c0-26.42-22.48-47.68-49.32-45.67c-22.39,1.68-40.47,19.76-42.15,42.15
					c-2.01,26.84,19.25,49.32,45.67,49.32c17.2,0,32.2-9.53,40.03-23.59l-9.01-5C180.16,327.51,174.21,328.12,170.05,331.7z"/>
			</g>
		</g>
	</g>
	<g>
		<g>
			<g>
				<path d="M167.51,22.22H9.68v-8.7c0-4.8,3.89-8.7,8.7-8.7H176.2v8.7C176.2,18.32,172.31,22.22,167.51,22.22z"/>
			</g>
			<g>
				<path d="M177.19,74.37H0v-8.7c0-4.8,3.89-8.7,8.7-8.7h177.19v8.7C185.89,70.48,181.99,74.37,177.19,74.37z"/>
			</g>
			<path d="M179.61,157.18l-19.91-54.69h-30.85l17.11,47.02c1.03,2.84-1.07,5.84-4.09,5.84H44c-3.02,0-5.12-3-4.09-5.84l28.84-79.25
				H37.91L6.27,157.18c-2.75,7.56,2.85,15.56,10.9,15.56h151.54C176.76,172.74,182.37,164.74,179.61,157.18z"/>
		</g>
		<g>
			<path d="M547.38,3.67v8.7c0,4.8,3.89,8.7,8.7,8.7h12.55c2.4,0,4.35,1.95,4.35,4.35l0,42.4c0,2.4-1.95,4.35-4.35,4.35h-22.38
				c-2.4,0-4.35-1.95-4.35-4.35l0-55.44c0-4.8-3.89-8.7-8.7-8.7h-18.12l0,65.59c0,11.21,9.09,20.29,20.29,20.29h44.12
				c11.21,0,20.29-9.09,20.29-20.29l0-45.29c0-11.21-9.09-20.29-20.29-20.29H547.38z"/>
			<g>
				<g>
					<path d="M548.74,145.51H458v-8.7c0-4.8,3.89-8.7,8.7-8.7h90.74v8.7C557.44,141.62,553.54,145.51,548.74,145.51z"/>
				</g>
				<path d="M453.6,94.3v8.7c0,4.8,3.89,8.7,8.7,8.7h103.43c2.4,0,4.35,1.95,4.35,4.35v41.54c0,2.4-1.95,4.35-4.35,4.35H452.47
					c-2.4,0-4.35-1.95-4.35-4.35l0-54.59c0-4.8-3.89-8.7-8.7-8.7H421.3l0,64.74c0,11.21,9.09,20.29,20.29,20.29h135
					c11.21,0,20.29-9.09,20.29-20.29l0-44.44c0-11.21-9.09-20.29-20.29-20.29H453.6z"/>
			</g>
			<g>
				<path d="M499.39,23.09h-64.65V5.7h73.34v8.7C508.09,19.2,504.19,23.09,499.39,23.09z"/>
			</g>
			<g>
				<path d="M500.81,58.26h-81.59v-8.7c0-4.8,3.89-8.7,8.7-8.7h81.59v8.7C509.51,54.37,505.61,58.26,500.81,58.26z"/>
			</g>
			<path d="M458.72,15.26l-39.5,74.29h25.87c4.29,0,8.23-2.37,10.24-6.15l36.23-68.14H458.72z"/>
			<path d="M448.72,19.69l3.46-19.61h-22.14c-4.22,0-7.83,3.03-8.57,7.19l-3.46,19.61h22.14C444.38,26.87,447.99,23.84,448.72,19.69
				z"/>
			<path d="M456.94,49.56l17.99,33.84c2.01,3.79,5.95,6.15,10.24,6.15h25.87l-21.26-39.99H456.94z"/>
		</g>
		<g>
			<path d="M660.91,58.21v8.7c0,4.8,3.89,8.7,8.7,8.7h21.51c2.4,0,4.35,1.95,4.35,4.35v12.07h-40.04l0-25.12c0-4.8-3.89-8.7-8.7-8.7
				h-18.12l0,121.12h15.22c6.4,0,11.6-5.19,11.6-11.6v-24.49h40.04v14.34c0,2.4-1.95,4.35-4.35,4.35h-7.17c-4.8,0-8.7,3.89-8.7,8.7
				v8.7l26.74,0c11.21,0,20.29-9.09,20.29-20.29l0-80.53c0-11.21-9.09-20.29-20.29-20.29H660.91z M655.43,125.85v-16.42h40.04
				l0,16.42H655.43z"/>
			<path d="M713.8,11.21h-30.85l6.67,18.32c0.86,2.36-0.89,4.86-3.41,4.86h-22.02c-2.52,0-4.27-2.5-3.41-4.86L671.5,0.08h-30.85
				l-13.16,36.16c-2.75,7.56,2.85,15.56,10.9,15.56h73.62c8.05,0,13.65-8,10.9-15.56L713.8,11.21z"/>
			<g>
				<path d="M806.99,16.77V6.41l-47.07,8.3V0h-26.82l0,54.01c0,11.21,9.09,20.29,20.29,20.29h53.59v-8.7c0-4.8-3.89-8.7-8.7-8.7
					h-34.02c-2.4,0-4.35-1.95-4.35-4.35l0-20.19l39.88-7.03C803.96,24.6,806.99,20.99,806.99,16.77z"/>
				<path d="M759.93,83.57h-26.82l0,75.46c0,11.21,9.09,20.29,20.29,20.29l53.59,0v-8.7c0-4.8-3.89-8.7-8.7-8.7h-34.02
					c-2.4,0-4.35-1.95-4.35-4.35l0-41.64l39.88-7.03c4.16-0.73,7.19-4.34,7.19-8.57V89.98l-47.07,8.3V83.57z"/>
			</g>
		</g>
		<g>
			<g>
				<path d="M288.25,23.09H223.1V5.7h73.84v8.7C296.95,19.2,293.05,23.09,288.25,23.09z"/>
			</g>
			<g>
				<path d="M384.18,26.21h-81.95v-8.7c0-4.8,3.89-8.7,8.7-8.7h81.95v8.7C392.88,22.32,388.99,26.21,384.18,26.21z"/>
			</g>
			<g>
				<path d="M360.51,8.77l0,4.27l-26.82,0l0-12.97l18.12,0C356.61,0.08,360.51,3.97,360.51,8.77z"/>
			</g>
			<g>
				<g>
					<path d="M291.67,104.19h-87.93v-8.7c0-4.8,3.89-8.7,8.7-8.7h87.93v8.7C300.37,100.3,296.47,104.19,291.67,104.19z"/>
				</g>
				<g>
					<path d="M291.67,157.24h-17.51v-17.4h26.21v8.7C300.37,153.35,296.47,157.24,291.67,157.24z"/>
				</g>
				<path d="M241.99,33.75v8.7c0,4.8,3.89,8.7,8.7,8.7h12.55c2.4,0,4.35,1.95,4.35,4.35l0,84.35h-26.73c-2.4,0-4.35-1.95-4.35-4.35
					l0-93.05c0-4.8-3.89-8.7-8.7-8.7H209.7l0,103.2c0,11.21,9.09,20.29,20.29,20.29h64.42l0-103.2c0-11.21-9.09-20.29-20.29-20.29
					H241.99z"/>
			</g>
			<g>
				<path d="M361.09,85.09l0,73.95c0,11.21-9.09,20.29-20.29,20.29h-5.07l0-85.55c0-4.8,3.89-8.7,8.7-8.7H361.09z"/>
			</g>
			<path d="M395.09,61.89l-9.11-25.02h-30.85l6.67,18.32c0.86,2.36-0.89,4.86-3.41,4.86h-22.8c-2.52,0-4.27-2.5-3.41-4.86
				l12.79-35.15h-30.85l-15.23,41.85c-2.75,7.56,2.85,15.56,10.9,15.56h74.4C392.24,77.45,397.84,69.45,395.09,61.89z"/>
			<path d="M209.84,7.26l-4.17,23.65h22.14c4.22,0,7.83-3.03,8.57-7.19l4.17-23.65H218.4C214.18,0.08,210.57,3.11,209.84,7.26z"/>
			<polygon points="241.52,56.4 245.02,81.08 262.58,81.08 259.09,56.4 			"/>
			<polygon points="241.52,109.81 245.02,134.49 262.58,134.49 259.09,109.81 			"/>
			<path d="M267.59,150.98v6.6c0,2.4-1.95,4.35-4.35,4.35h-7.17c-4.8,0-8.7,3.89-8.7,8.7v8.7h26.74c11.21,0,20.3-9.09,20.3-20.29
				v-8.05H267.59z"/>
			<path d="M395.29,160.52l0.01-0.01c-2.3-1.71-3.75-4.43-3.75-7.42v-68h-16.67c-4.8,0-8.7,3.89-8.7,8.7v60.18
				c0,14.01,11.36,25.37,25.37,25.37v0h6.57v-13.47C398.11,163.38,397.29,161.98,395.29,160.52z"/>
			<path d="M301.64,160.52l-0.01-0.01c2.3-1.71,3.75-4.43,3.75-7.42V93.78c0-4.8,3.89-8.7,8.7-8.7h16.67v68.88
				c0,14.01-11.36,25.37-25.37,25.37v0h-6.57v-13.47C298.82,163.38,299.64,161.98,301.64,160.52z"/>
		</g>
	</g>
</g>
</svg>
